<svg width="255" height="436" viewBox="0 0 255 436" fill="none" xmlns="http://www.w3.org/2000/svg">
<path d="M55.9455 27.8734C55.9456 33.3893 57.5822 38.7812 60.6481 43.3665C63.7141 47.9517 68.0716 51.5243 73.169 53.6318C78.2664 55.7393 83.8745 56.2871 89.2833 55.2057C94.6922 54.1243 99.6586 51.4624 103.554 47.557C107.449 43.6516 110.098 38.6783 111.165 33.2667C112.233 27.855 111.67 22.2484 109.55 17.1565C107.429 12.0646 103.845 7.71639 99.2517 4.66235C94.6584 1.60832 89.2623 -0.0142329 83.7464 9.40663e-05C80.0895 8.16661e-05 76.4684 0.721565 73.0908 2.12322C69.7131 3.52487 66.6451 5.57914 64.0626 8.16837C61.4801 10.7576 59.4338 13.8309 58.041 17.2122C56.6481 20.5935 55.936 24.2164 55.9455 27.8734Z" fill="#F41111"/>
<path opacity="0.5" d="M86.7143 14.8419C86.7 15.5925 86.9104 16.3302 87.3185 16.9603C87.7266 17.5903 88.3138 18.084 89.0046 18.3779C89.6954 18.6718 90.4582 18.7524 91.1952 18.6095C91.9322 18.4665 92.6096 18.1065 93.1404 17.5757C93.6712 17.0449 94.0312 16.3675 94.1742 15.6305C94.3171 14.8935 94.2365 14.1307 93.9426 13.4399C93.6487 12.7491 93.155 12.1619 92.525 11.7538C91.8949 11.3457 91.1572 11.1353 90.4066 11.1496C89.4274 11.1496 88.4882 11.5386 87.7958 12.2311C87.1033 12.9235 86.7143 13.8627 86.7143 14.8419Z" fill="white"/>
<path opacity="0.2" d="M76.1439 1.01367C72.3934 4.9663 69.8837 9.93151 68.9251 15.2953C67.9665 20.6591 68.601 26.1863 70.7502 31.1933C72.8993 36.2003 76.4689 40.4676 81.0175 43.4676C85.5661 46.4675 90.8942 48.0684 96.343 48.0725C98.7872 48.0792 101.222 47.7627 103.583 47.1313C100.612 50.2001 96.9733 52.543 92.9501 53.9782C88.927 55.4133 84.6272 55.9021 80.3846 55.4067C76.142 54.9112 72.0706 53.4448 68.4864 51.1212C64.9022 48.7976 61.9016 45.6794 59.7176 42.0085C57.5335 38.3377 56.2246 34.2129 55.8926 29.9544C55.5606 25.6958 56.2144 21.418 57.8031 17.453C59.3919 13.488 61.8729 9.94243 65.0536 7.09143C68.2344 4.24043 72.0293 2.16071 76.1439 1.01367Z" fill="black"/>
<path d="M0.342705 109.683C0.357018 116.639 2.43276 123.435 6.30769 129.211C10.1826 134.988 15.6828 139.487 22.1134 142.139C28.5439 144.791 35.6163 145.477 42.4368 144.111C49.2574 142.746 55.52 139.389 60.4336 134.465C65.3471 129.541 68.691 123.272 70.0428 116.449C71.3946 109.625 70.6936 102.554 68.0284 96.1292C65.3631 89.7041 60.8533 84.2132 55.0687 80.3501C49.284 76.4871 42.4841 74.4253 35.5282 74.4253C26.1898 74.4445 17.2404 78.1676 10.6439 84.7777C4.0474 91.3877 0.34269 100.345 0.342705 109.683Z" fill="#FF9F36"/>
<path opacity="0.2" d="M26.8416 75.7285C22.0622 80.7034 18.8542 86.9759 17.6181 93.7629C16.382 100.55 17.1724 107.551 19.8909 113.891C22.6093 120.232 27.1353 125.631 32.9036 129.415C38.672 133.199 45.4272 135.199 52.3257 135.167C55.3068 135.152 58.2742 134.763 61.1583 134.009C57.4499 138.067 52.8423 141.199 47.705 143.155C42.5677 145.111 37.0436 145.836 31.5755 145.272C26.1074 144.708 20.8476 142.871 16.2177 139.908C11.5877 136.944 7.71649 132.937 4.91439 128.208C2.1123 123.479 0.457287 118.159 0.082016 112.674C-0.293259 107.19 0.621647 101.694 2.75342 96.6274C4.88519 91.5605 8.17452 87.0636 12.3576 83.4972C16.5408 79.9308 21.5013 77.3941 26.8416 76.0905V75.7285Z" fill="black"/>
<path d="M190.823 39.3848C203.19 33.7006 216.092 29.2624 229.339 26.136C257.863 38.5884 290.949 35.4029 322.877 25.4844C343.192 30.0059 362.715 37.5466 380.796 47.8554C316.361 59.2219 248.09 65.3758 190.823 39.3848Z" fill="#FFB727"/>
<path d="M229.339 26.1358C260.054 18.7375 292.061 18.5145 322.877 25.4842C290.949 35.4027 257.864 38.5883 229.339 26.1358Z" fill="#FFC215"/>
<path d="M193.066 74.6139C180.471 70.5599 168.241 65.4497 156.505 59.3378C167.298 51.6245 178.787 44.9349 190.822 39.356C248.089 65.4917 316.361 59.3378 380.867 47.9713C394.314 55.7434 406.866 64.9692 418.297 75.4826C345.977 104.562 265.16 104.25 193.066 74.6139Z" fill="#FF9F36"/>
<path d="M113.211 100.547C117.338 95.1892 121.754 90.1213 126.388 85.1982C145.976 104.77 171.376 117.47 198.786 121.397C279.365 143.117 369.79 144.782 429.736 86.8634C439.753 97.6339 448.61 109.427 456.161 122.049C351.256 169.47 189.012 192.13 113.211 100.547Z" fill="#F9832B"/>
<path d="M76.7227 172.525C78.1707 167.095 79.9082 161.81 81.7906 156.525C99.1648 168.317 118.952 176.084 139.709 179.258C254.171 207.71 373.266 208.651 466.225 139.656C473.103 154.378 478.23 169.856 481.501 185.773C358.352 244.054 189.736 244.633 76.7227 172.525Z" fill="#FF6A17"/>
<path d="M81.7184 298.136C76.7294 284.33 73.2107 270.037 71.2207 255.493C183.148 337.81 362.406 324.923 481.935 267.873C478.026 288.102 471.095 307.627 461.374 325.792C340.397 368.796 196.976 356.706 81.7184 298.136Z" fill="#EA1111"/>
<path d="M449.646 344.833C442.35 355.379 434.111 365.242 425.031 374.299C349.664 384.941 274.443 368.29 204.868 391.457C190.139 397.043 174.41 399.508 158.678 398.697C142.937 387.703 128.784 374.597 116.615 359.747C216.09 392.253 344.597 351.204 449.646 344.833Z" fill="#CE0B0B"/>
<path d="M185.466 414.19C176.147 409.538 167.192 404.19 158.679 398.19C174.411 399.001 190.14 396.536 204.869 390.95C274.444 367.782 349.665 384.434 425.032 373.792C415.873 382.939 405.915 391.25 395.276 398.624C333.81 375.963 252.941 390.081 185.466 414.19Z" fill="#BF0C0C"/>
<path d="M349.374 422.733C336.502 427.494 323.187 430.962 309.627 433.086C293.265 423.167 275.456 426.425 258.442 434.751C241.834 433.248 225.472 429.722 209.718 424.253C251.419 404.778 305.79 405.43 349.374 422.733Z" fill="#871108"/>
<path d="M395.275 399.131C381.02 408.884 365.6 416.813 349.375 422.733C305.936 405.285 251.42 404.778 209.719 424.254C201.414 421.456 193.311 418.094 185.465 414.19C252.94 390.082 333.809 375.964 395.275 399.131Z" fill="#A3130C"/>
<path d="M116.616 359.747C101.43 341.387 89.5266 320.544 81.4302 298.136C196.978 356.706 340.398 368.796 461.376 325.357C457.827 332.06 453.912 338.561 449.647 344.833C344.597 351.204 216.091 392.253 116.616 359.747Z" fill="#E01212"/>
<path d="M71.2211 255.493C69.9453 246.184 69.2923 236.799 69.2664 227.403C69.2664 222.19 69.2664 217.05 69.918 211.982C191.692 282.353 368.922 323.33 485.845 237.538C485.327 247.736 484.02 257.878 481.936 267.873C362.406 324.923 183.149 337.81 71.2211 255.493Z" fill="#F41111"/>
<path d="M69.9179 211.982C70.2799 207.493 70.7144 203.077 71.2935 198.733C186.117 275.113 373.194 272.506 483.529 196.995C485.037 207.061 485.811 217.224 485.845 227.402C485.845 230.805 485.845 234.135 485.845 237.538C368.922 323.33 191.692 282.353 69.9179 211.982Z" fill="#FF1212"/>
<path d="M71.2932 198.733C72.5374 189.889 74.3511 181.135 76.723 172.525C189.737 244.633 358.352 244.054 481.501 185.774C482.297 189.466 482.949 193.014 483.528 196.995C373.193 272.507 186.117 275.113 71.2932 198.733Z" fill="#FF4715"/>
<path d="M140 179.967C119.242 176.793 99.4553 169.027 82.0811 157.234C89.5063 136.802 100.11 117.671 113.502 100.546C189.013 192.13 351.257 169.469 456.38 121.687C459.989 127.735 463.276 133.97 466.226 140.365C373.266 209.361 254.172 208.42 140 179.967Z" fill="#FC6F29"/>
<path d="M199.004 121.745C171.594 117.818 146.194 105.117 126.606 85.546C135.736 75.8986 145.746 67.1245 156.506 59.3379C168.247 65.4002 180.477 70.4618 193.067 74.4691C265.161 104.105 345.978 104.417 418.298 75.3379C422.352 79.1026 426.19 83.0121 429.954 87.0664C370.009 145.13 279.583 143.247 199.004 121.745Z" fill="#FF9A22"/>
<path opacity="0.2" d="M219.131 27.5112C213.564 46.487 210.736 66.1609 210.733 85.9365C210.733 113.29 216.121 140.375 226.588 165.645C237.056 190.916 252.398 213.878 271.74 233.219C310.801 272.281 363.781 294.226 419.023 294.226C438.799 294.229 458.473 291.401 477.448 285.828C467.311 320.548 448.308 352.03 422.309 377.175C396.31 402.32 364.211 420.262 329.172 429.233C294.133 438.205 257.362 437.898 222.477 428.343C187.593 418.787 155.798 400.312 130.223 374.737C104.647 349.161 86.1719 317.366 76.6163 282.482C67.0607 247.597 66.7538 210.826 75.7256 175.787C84.6975 140.748 102.639 108.649 127.784 82.6501C152.929 56.651 184.411 37.6479 219.131 27.5112Z" fill="url(#paint0_linear_1_2080)"/>
<path opacity="0.5" d="M39.655 95.9999C39.6549 96.5765 39.7696 97.1473 39.9924 97.6791C40.2152 98.2109 40.5417 98.6931 40.9527 99.0974C41.3638 99.5017 41.8513 99.8202 42.3867 100.034C42.9221 100.248 43.4947 100.353 44.0712 100.344C44.9478 100.344 45.8044 100.083 46.5322 99.5942C47.2599 99.1057 47.8258 98.4116 48.1578 97.6004C48.4899 96.7892 48.573 95.8976 48.3966 95.039C48.2203 94.1804 47.7924 93.3937 47.1675 92.779C46.5426 92.1644 45.749 91.7496 44.8876 91.5874C44.0262 91.4253 43.136 91.5232 42.3304 91.8685C41.5248 92.2139 40.8402 92.7912 40.3638 93.527C39.8873 94.2627 39.6406 95.1235 39.655 95.9999Z" fill="white"/>
<defs>
<linearGradient id="paint0_linear_1_2080" x1="392.308" y1="138.136" x2="40.163" y2="412.163" gradientUnits="userSpaceOnUse">
<stop/>
<stop offset="0.14" stop-color="#030001"/>
<stop offset="0.27" stop-color="#0E0103"/>
<stop offset="0.39" stop-color="#200206"/>
<stop offset="0.51" stop-color="#3A040B"/>
<stop offset="0.62" stop-color="#5A0611"/>
<stop offset="0.73" stop-color="#820919"/>
<stop offset="0.84" stop-color="#B20C22"/>
<stop offset="0.95" stop-color="#E80F2D"/>
<stop offset="0.99" stop-color="#FF1131"/>
</linearGradient>
</defs>
</svg>
