<svg width="200" height="248" viewBox="0 0 200 248" fill="none" xmlns="http://www.w3.org/2000/svg">
<path d="M89.1747 37.4385C91.002 37.4385 92.8294 37.4385 94.6567 37.4385C115.489 37.4385 135.224 43.6623 151.67 54.2795C149.112 55.3778 146.919 56.4761 144.726 57.5744C124.26 64.8966 104.159 55.3778 89.1747 37.4385Z" fill="#FCFCFC"/>
<path d="M89.1747 37.4385C103.794 55.3778 124.26 64.8966 144.361 57.2083C146.554 56.11 148.747 55.0117 151.305 53.9133C160.807 60.1372 168.847 67.4593 175.791 75.8798C170.309 73.3171 164.462 71.1204 158.98 68.9238C138.148 63.066 114.392 89.792 102.697 71.8527C90.2711 56.11 74.1904 46.9573 57.7442 43.6623C67.9774 40.3673 78.2106 38.1707 89.1747 37.4385Z" fill="#EFEFEF"/>
<path d="M58.1095 44.0283C74.5557 47.3233 90.6364 56.8421 103.062 72.2186C115.123 90.158 138.879 63.4321 159.345 69.2898C164.827 71.4864 170.675 73.6831 176.157 76.2458C177.984 78.8086 180.177 81.3714 181.639 83.9341C172.867 80.273 162.269 82.8358 156.421 87.2291C141.437 96.0157 123.894 113.955 103.062 105.168C85.1543 96.3818 79.3068 72.5848 64.3225 63.7982C50.0691 55.0116 36.1812 63.0659 21.9278 67.0931C32.161 56.8421 44.5871 49.1538 58.1095 44.0283Z" fill="#E5E5E5"/>
<path d="M21.9281 66.7268C36.1814 62.6996 50.0693 54.6452 64.3227 63.4318C79.307 72.2184 85.1546 96.0155 103.063 104.802C123.895 113.589 141.803 96.0154 156.421 86.8627C162.634 83.2017 172.868 80.2728 181.639 83.9339C186.39 91.256 190.41 99.3104 193.334 107.731C178.35 100.409 162.269 116.151 150.208 125.67C120.605 146.538 73.094 140.681 58.1097 101.873C49.3384 81.005 25.5828 104.802 10.5984 98.9443C7.3092 97.4799 4.38545 95.2832 1.82715 92.7205C7.30922 83.2017 13.8877 74.4151 21.9281 66.7268Z" fill="#DBDBDB"/>
<path d="M129.011 241.361C118.047 245.022 106.717 247.218 94.6566 247.218C92.0983 247.218 89.1746 247.218 86.6163 246.852C100.87 243.191 115.854 236.967 129.011 241.361Z" fill="#8C8C8C"/>
<path d="M64.3226 223.788C82.2306 223.788 96.8495 244.656 114.758 232.574C126.818 225.252 142.899 221.957 157.883 225.618C149.112 232.208 139.61 237.334 129.011 240.995C115.489 236.967 100.87 242.825 86.2508 246.486C72.7284 245.388 59.9369 241.727 48.2418 236.235C53.3584 230.378 57.7441 223.788 64.3226 223.788Z" fill="#9B9B9B"/>
<path d="M1.09612 189.739C17.5423 195.231 33.9885 216.831 49.3383 220.492C67.2464 223.421 85.1545 205.482 96.8496 208.777C126.453 211.706 153.132 220.492 176.888 193.766C178.715 193.766 182.37 192.668 185.659 193.766C178.715 206.214 169.213 217.197 157.518 225.618C142.533 221.957 126.453 225.252 114.392 232.574C96.4841 244.289 81.8652 223.787 63.9572 223.787C57.3787 223.787 52.993 230.377 47.8764 236.601C28.141 226.35 11.3293 209.875 1.09612 189.739Z" fill="#AAAAAA"/>
<path d="M25.9481 167.407C34.7194 182.417 38.0087 197.062 52.6275 202.919C70.5356 208.777 79.3069 191.204 91.3674 187.909C120.971 182.051 153.863 211.706 177.619 172.899C179.811 170.702 188.948 164.844 195.892 170.336C193.334 178.756 190.045 186.445 186.024 193.767C182.735 193.034 179.081 193.767 177.253 193.767C153.498 220.493 126.818 211.706 97.215 208.777C85.1544 205.848 67.6118 223.788 49.7037 220.493C34.3539 216.465 17.5423 195.231 1.46153 189.74C-3.2896 180.587 -6.57884 170.336 -8.40619 159.719C3.65436 161.183 15.7149 154.593 25.9481 167.407Z" fill="#B7B7B7"/>
<path d="M-7.67514 118.348C2.19258 120.545 13.1567 122.009 19.7352 128.599C31.7957 140.315 37.6433 158.254 55.5514 164.112C73.4594 169.969 88.0783 149.101 103.063 149.101C123.894 149.101 138.879 172.898 165.558 164.112C184.563 156.057 181.273 130.43 198.816 128.599C199.182 132.992 199.547 137.752 199.547 142.145C199.547 152.03 198.085 161.549 195.527 170.335C188.583 164.844 179.446 170.702 177.253 172.898C153.498 211.34 120.971 181.685 91.0021 187.909C78.9415 190.838 70.1702 208.777 52.2621 202.919C37.2778 197.061 34.354 182.051 25.5827 167.407C15.715 154.959 3.289 161.183 -9.13702 160.084C-10.2334 154.227 -10.5989 148.369 -10.5989 142.511C-10.2334 134.091 -9.5025 126.036 -7.67514 118.348Z" fill="#C1C1C1"/>
<path d="M165.558 164.112C138.879 172.898 123.894 149.101 103.062 149.101C88.0781 149.101 73.4592 169.97 55.5511 164.112C37.6431 158.254 31.7955 140.315 19.735 128.599C13.1565 122.009 2.19235 120.545 -7.67537 118.348C-5.48254 109.196 -2.1933 100.775 1.82689 92.7207C4.38519 95.2835 7.30894 97.114 10.5982 98.9445C25.5825 104.802 49.3381 81.0052 58.1094 101.873C73.0938 140.315 120.605 146.539 150.208 125.67C162.269 116.152 178.349 100.409 193.334 107.731C195.527 114.321 197.354 121.277 198.45 128.599C180.908 130.43 184.562 156.057 165.558 164.112Z" fill="#CCCCCC"/>
<path opacity="0.2" d="M65.3193 41.9575C62.761 51.1102 60.9336 60.9952 60.9336 71.2462C60.9336 129.091 108.079 175.953 165.824 175.953C176.057 175.953 185.925 174.489 195.427 171.56C182.636 215.127 142.434 246.978 94.557 246.978C36.4471 246.978 -10.3333 200.116 -10.3333 142.271C-10.3333 95.0432 21.4627 54.7713 65.3193 41.9575Z" fill="url(#paint0_linear_1_1949)"/>
<path opacity="0.7" d="M125.722 65.6288C122.433 69.656 125.722 77.7104 133.031 83.202C140.341 88.6936 148.747 89.792 152.036 85.3987C155.325 81.3715 152.036 73.3171 144.726 67.8255C137.052 62.3339 128.646 61.2355 125.722 65.6288Z" fill="white"/>
<path d="M-68.3434 67.0931C-85.1551 69.2897 -97.2156 85.0324 -94.6573 102.239C-92.4645 119.08 -76.7493 131.162 -59.5721 128.599C-44.2223 126.403 -33.6236 113.955 -33.2582 99.3106C-33.2582 98.9445 -0.36577 69.2897 -1.46218 67.0931C-2.5586 65.2625 -32.8927 95.2834 -32.8927 94.5512C-32.8927 93.819 -32.8927 94.1851 -32.8927 93.4529C-33.2582 90.524 23.3899 35.9739 20.4661 31.2145C16.8114 25.3567 -35.8165 83.9341 -35.8165 83.2018C-36.1819 82.4696 -38.0093 79.9069 -38.7402 78.8085C-39.8367 78.8085 2.19253 37.0722 -0.731237 33.7772C-4.38595 29.75 -44.9533 73.683 -45.3187 72.9508C-46.0497 72.5847 -46.7806 71.8525 -47.5116 71.4864C-48.2425 71.1203 12.7912 8.14965 8.77101 3.39025C5.84724 0.0952721 -54.821 68.1914 -56.2829 68.1914C-56.2829 68.1914 -60.3031 67.8253 -59.5721 67.0931C-55.9174 60.5031 -33.6237 33.4111 -35.8165 31.5806C-39.8367 28.6517 -65.7851 67.0931 -68.3434 67.0931Z" fill="#FFD400"/>
<path d="M4.01992 29.018C2.19257 30.1163 0.365207 27.9197 0.730678 25.723C0.730678 23.8925 2.55803 22.062 4.38539 21.6959C6.21274 21.3297 8.77104 22.062 8.0401 24.2586C8.0401 23.8925 5.84728 27.9197 4.01992 29.018Z" fill="#FF8500"/>
<path opacity="0.5" d="M3.28873 27.5535C5.11608 26.4552 7.30892 22.428 7.30892 22.428C7.30892 22.0619 7.67439 22.0619 7.67439 21.6958C8.40533 22.0619 8.7708 22.7941 8.40533 23.8924C8.40533 23.8924 6.2125 27.5535 4.38514 29.018C2.92325 30.1163 1.82685 28.6519 1.09591 27.1874C1.46138 27.9196 2.55779 27.9196 3.28873 27.5535Z" fill="#FFFA94"/>
<path d="M0.365224 77.7104C-1.46213 78.8087 -2.92401 75.8798 -2.55854 74.0493C-2.19307 72.2188 -0.365721 70.3882 1.46163 70.3882C3.28899 70.0221 5.84729 71.1204 4.75088 73.3171C4.75088 73.3171 2.19258 76.6121 0.365224 77.7104Z" fill="#FF8500"/>
<path opacity="0.5" d="M-0.000305653 76.2461C1.82705 75.1478 4.38534 71.8528 4.38534 71.8528C4.38534 71.4867 4.75082 71.4867 4.75082 71.1206C5.48176 71.4867 5.84722 72.585 5.11628 73.6834C5.11628 73.6834 2.55798 77.3444 0.730626 78.0767C-0.731259 78.8089 -1.82767 77.3444 -2.19314 75.88C-1.82767 76.2461 -1.09672 76.6122 -0.000305653 76.2461Z" fill="#FFFA94"/>
<path d="M2.19283 4.12243C1.09642 4.85464 0.365476 3.39021 0.365476 2.29188C0.365476 1.19356 1.46188 0.0952356 2.5583 0.0952356C3.65471 -0.270873 5.11659 0.461344 4.38565 1.55967C4.38565 1.19356 3.28924 3.39021 2.19283 4.12243Z" fill="#FF8500"/>
<path opacity="0.5" d="M1.82713 3.39019C2.92355 2.65797 4.01995 0.461323 4.01995 0.461323V0.0952148C4.38543 0.461323 4.75089 0.827431 4.38542 1.55965C4.38542 1.55965 3.28901 3.7563 2.1926 4.48851C1.46166 4.85462 0.730714 4.1224 0.365243 3.39019C0.730714 3.39019 1.46166 3.39019 1.82713 3.39019Z" fill="#FFFA94"/>
<path d="M14.9841 26.4551C13.8877 27.1874 13.1567 25.7229 13.1567 24.6246C13.1567 23.5263 14.2531 22.4279 15.3496 22.4279C16.446 22.0618 17.9079 22.4279 17.1769 23.8924C17.1769 23.5263 15.715 25.7229 14.9841 26.4551Z" fill="#FF8500"/>
<path opacity="0.5" d="M14.2533 25.3565C15.3497 24.6243 16.4461 22.4276 16.4461 22.4276V22.0615C16.8116 22.4276 17.177 22.7937 16.8116 23.526C16.8116 23.526 15.7152 25.7226 14.6187 26.4548C13.8878 26.8209 13.1569 26.0887 12.7914 25.3565C13.5223 25.7226 13.8878 25.7226 14.2533 25.3565Z" fill="#FFFA94"/>
<path d="M7.30916 63.066C6.21275 63.7982 5.48181 62.3338 5.48181 61.2354C5.48181 60.1371 6.57822 59.0388 7.67463 59.0388C8.77104 58.6727 10.2329 59.0388 9.50199 60.5032C9.50199 60.1371 8.40558 62.3338 7.30916 63.066Z" fill="#FF8500"/>
<path opacity="0.5" d="M6.94357 61.9673C8.03999 61.2351 9.13641 59.0385 9.13641 59.0385V58.6724C9.50188 59.0385 9.86735 59.4046 9.50188 60.1368C9.50188 60.1368 8.40547 62.3334 7.30905 63.0657C6.57811 63.4318 5.84717 62.6996 5.4817 61.9673C5.84717 62.3334 6.21263 62.3334 6.94357 61.9673Z" fill="#FFFA94"/>
<defs>
<linearGradient id="paint0_linear_1_1949" x1="152.494" y1="97.5554" x2="-25.1082" y2="235.488" gradientUnits="userSpaceOnUse">
<stop/>
<stop offset="0.5688"/>
<stop offset="0.6061"/>
<stop offset="1" stop-color="#404040"/>
</linearGradient>
</defs>
</svg>
