<svg width="326" height="548" viewBox="0 0 326 548" fill="none" xmlns="http://www.w3.org/2000/svg">
<path d="M21.0005 132.539L26.0869 133.651C34.0631 135.799 41.8942 138.454 49.5324 141.599C53.9831 143.506 58.5132 145.573 62.8049 147.877C67.0966 150.182 71.3089 152.567 75.4417 155.189C55.1752 155.825 32.0476 148.195 21.0005 132.539Z" fill="#FFF871"/>
<path d="M-8.88195 127.929C-5.14657 127.929 -1.49065 128.565 2.08578 128.962C8.44875 129.825 14.7624 131.018 21.0011 132.538C32.0483 148.434 55.4938 155.825 75.4423 155.348L78.224 157.017C85.9077 162.12 93.1879 167.806 100 174.025C60.2624 192.384 10.5103 167.269 -8.88195 127.929Z" fill="#FFA727"/>
<path d="M-27.2416 127.77H-19.2939C-15.7175 127.77 -12.1411 127.77 -8.64413 127.77C10.7481 167.11 60.5002 192.225 100.238 173.866C106.645 179.819 112.62 186.22 118.12 193.02C65.984 216.544 -2.92185 181.893 -27.2416 127.77Z" fill="#9E713B"/>
<path d="M-4.51089 201.523C-26.2874 183.323 -48.1434 158.924 -57.9984 131.902C-54.1836 131.028 -50.0508 130.233 -46.3949 129.597L-38.4473 128.564C-34.7913 128.564 -31.056 127.928 -27.3206 127.77C-3.00087 181.893 65.905 216.544 117.803 193.178C120.505 196.516 123.128 200.013 125.751 203.51C86.9662 232.122 30.6176 224.969 -4.51089 201.523Z" fill="#B75F00"/>
<path d="M-65.1517 133.571C-62.7674 133.015 -60.3831 132.379 -57.9989 131.902C-48.0643 158.924 -26.2083 183.323 -4.51134 201.524C30.6172 224.969 87.1247 232.122 125.671 203.51C126.942 205.259 128.214 207.087 129.327 208.915C132.347 213.524 135.049 218.372 137.672 223.379C139.42 226.797 141.089 230.373 142.679 233.95L144.109 237.526C60.6592 267.409 -35.1097 218.214 -65.1517 133.571Z" fill="#FFA727"/>
<path d="M-91.8557 143.029C-83.6836 139.393 -75.2647 136.339 -66.6618 133.89L-65.1517 133.492C-35.1097 218.214 60.6591 267.41 144.109 237.527C146.442 242.996 148.458 248.595 150.149 254.296C150.865 256.521 151.421 258.906 151.977 261.21C55.1753 288.471 -60.86 236.652 -91.8557 143.029Z" fill="#FFF871"/>
<path d="M-113.712 154.871C-107.222 150.697 -100.45 146.979 -93.4451 143.745L-91.8556 143.029C-60.8599 236.652 55.1754 288.471 151.977 261.528C152.454 263.197 152.931 264.866 153.329 266.535C154.521 272.019 155.395 277.662 156.11 283.305C50.9632 310.883 -54.9786 245.792 -113.712 154.871Z" fill="#FFA727"/>
<path d="M-134.376 170.051C-130.879 167.11 -127.382 164.249 -123.646 161.547C-119.911 158.845 -117.129 157.017 -113.712 154.871C-54.9788 245.792 50.9631 310.883 156.11 283.305C156.587 287.12 157.064 291.252 157.302 294.829C157.541 298.405 157.302 301.425 157.302 304.684C157.302 306.591 157.302 308.419 157.302 310.247C157.302 312.075 157.302 313.108 157.302 314.539C47.2277 342.117 -78.4243 272.734 -134.376 170.051Z" fill="#9E713B"/>
<path d="M-148.443 183.483C-147.886 182.926 -147.489 182.37 -147.012 181.814C-142.959 177.681 -139.064 173.866 -134.375 170.051C-78.4241 272.735 47.2278 342.117 157.143 314.539C157.143 316.923 157.143 319.228 156.667 321.612C156.19 326.222 155.554 330.752 154.759 335.282C154.282 338.302 153.646 341.323 152.931 344.263C35.4653 362.94 -91.8555 287.279 -148.443 183.483Z" fill="#B75F00"/>
<path d="M-163.623 202.08C-158.982 195.55 -153.911 189.337 -148.443 183.482C-91.8559 287.278 35.465 362.94 152.931 344.263C152.375 346.647 151.818 348.952 151.182 351.257C149.323 358.172 147.04 364.967 144.347 371.603C144.103 372.064 143.89 372.542 143.712 373.033C50.8039 391.71 -35.3483 349.19 -99.9625 284.258C-123.629 258.851 -144.936 231.345 -163.623 202.08Z" fill="#FFF871"/>
<path d="M-186.75 246.984C-184.223 239.53 -181.196 232.254 -177.69 225.208C-174.346 218.576 -170.603 212.154 -166.483 205.974L-163.622 202.08C-144.961 231.342 -123.68 258.848 -100.041 284.258C-35.4271 348.793 50.9635 391.71 143.633 373.033C141.646 377.723 139.421 382.412 137.036 386.942C133.913 392.876 130.463 398.634 126.704 404.188C-1.72919 423.183 -115.062 350.303 -186.75 246.984Z" fill="#FFA727"/>
<path d="M-196.605 303.174C-196.523 291.715 -195.299 280.294 -192.949 269.078C-192.393 266.376 -191.757 263.595 -191.042 261.131C-144.23 369.616 -9.91547 434.945 107.709 428.031C104.769 431.13 101.669 434.151 98.4901 437.012C93.7674 441.216 88.8051 445.144 83.628 448.774C-25.5723 452.827 -123.01 400.453 -195.81 321.612C-196.287 316.208 -196.685 310.803 -196.685 305.24C-196.685 304.207 -196.605 303.651 -196.605 303.174Z" fill="#FFA727"/>
<path d="M83.6278 448.138C81.323 449.887 79.0182 451.556 76.6339 453.145C69.2809 457.956 61.5764 462.207 53.5858 465.862L49.453 467.61C-40.673 460.457 -137.396 419.924 -190.406 351.098C-193.068 341.258 -194.876 331.207 -195.811 321.056C-123.01 399.817 -25.5725 452.192 83.6278 448.138Z" fill="#FFF871"/>
<path d="M-172.524 393.856C-113.295 438.963 -42.739 466.8 31.3329 474.286C24.8151 476.286 18.1793 477.879 11.4638 479.055C1.34308 480.908 -8.92496 481.839 -19.214 481.836H-22.3136C-62.6875 463.875 -108.625 454.258 -144.627 429.7C-155.346 419.066 -164.618 407.069 -172.206 394.015L-172.524 393.856Z" fill="#9E713B"/>
<path d="M49.4529 467.61C43.4264 470.153 37.272 472.381 31.0144 474.286C-42.9468 466.743 -113.385 438.909 -172.524 393.856C-179.82 381.357 -185.559 368.012 -189.612 354.118C-189.612 353.085 -190.168 352.052 -190.406 350.939C-137.396 420.163 -40.6732 460.457 49.4529 467.61Z" fill="#FFA727"/>
<path d="M-191.201 260.892C-190.327 257.475 -189.373 253.978 -188.26 250.64C-188.26 249.368 -187.386 248.176 -186.909 246.984C-115.381 350.303 -1.88861 423.183 126.386 404.188L123.763 408.162C120.294 412.934 116.58 417.523 112.637 421.911C111.047 423.819 109.299 425.567 107.55 427.395C-9.91571 434.707 -144.23 369.378 -191.201 260.892Z" fill="#9E713B"/>
<path opacity="0.2" d="M-69.2841 135.082C-73.9503 151.255 -76.3311 168.001 -76.3574 184.834C-76.2312 231.721 -57.5222 276.646 -24.3305 309.763C8.86116 342.88 53.8281 361.488 100.716 361.509C117.575 361.497 134.35 359.116 150.547 354.436C141.981 383.996 125.861 410.814 103.777 432.248C81.6921 453.683 54.4046 468.994 24.6022 476.674C-5.20016 484.353 -36.4891 484.137 -66.1823 476.045C-95.8754 467.953 -122.948 452.265 -144.734 430.527C-166.519 408.789 -182.266 381.75 -190.422 352.075C-198.578 322.399 -198.863 291.111 -191.248 261.292C-183.633 231.473 -168.381 204.152 -146.995 182.021C-125.608 159.89 -98.8251 143.712 -69.2841 135.082Z" fill="url(#paint0_linear_1_2248)"/>
<path d="M-48.7795 128.326C-60.5414 130.46 -72.0483 133.817 -83.1132 138.34C-185.081 85.1708 -268.134 66.8118 -289.751 97.5691C-311.369 128.326 -269.008 196.199 -189.929 271.622C-151.558 307.918 -110.628 341.411 -67.4564 371.842C-24.4716 402.497 20.6838 429.989 67.6532 454.099C165.171 503.454 243.852 520.065 265.072 490.023C286.292 459.981 241.229 386.704 157.541 308.658C158.047 296.697 157.354 284.716 155.474 272.894C279.219 379.233 349.237 483.744 318.162 527.297C288.438 569.34 173.674 542 38.247 467.213C-3.00824 444.252 -42.9903 419.074 -81.5237 391.79C-120.188 364.711 -157.333 335.526 -192.79 304.366C-308.349 201.444 -372.486 102.417 -342.762 60.2947C-312.005 16.8212 -190.247 47.658 -48.7795 128.326Z" fill="#FFA727"/>
<path d="M-83.1129 138.34C-89.3557 140.812 -95.4347 143.679 -101.313 146.924C-103.538 148.116 -105.684 149.387 -107.83 150.659C-176.259 118.869 -229.111 109.172 -243.893 130.154C-258.676 151.136 -233.641 194.768 -184.048 246.348C-144.684 286.507 -101.66 322.906 -55.5347 355.072C-9.88013 387.799 38.7321 416.189 89.6684 439.873C154.998 469.359 204.988 477.704 219.374 457.437C233.759 437.171 207.373 389.962 154.521 336.077C155.104 333.587 155.581 331.123 155.952 328.686C156.968 322.05 157.631 315.364 157.938 308.658C242.024 386.942 287.326 459.106 265.47 490.022C243.614 520.939 165.568 503.454 68.0508 454.099C21.0815 429.988 -24.0739 402.497 -67.0587 371.841C-110.477 341.439 -151.646 307.945 -190.247 271.622C-269.723 196.199 -311.21 127.531 -290.069 97.5689C-268.928 67.6064 -185.081 85.1706 -83.1129 138.34Z" fill="#FFF871"/>
<path d="M-107.83 150.977C-111.407 153.123 -114.983 155.427 -118.401 157.812C-123.09 161.15 -127.699 164.726 -132.071 168.541C-169.742 152.646 -196.605 148.036 -204.076 158.607C-211.547 169.177 -199.069 191.669 -173.001 220.598C-132.83 262.882 -88.3164 300.817 -40.196 333.772C6.9212 368.148 57.5368 397.451 110.809 421.196C146.812 436.058 172.244 440.032 179.556 429.779C186.868 419.527 173.754 395.366 146.176 365.245C148.242 359.84 150.149 354.277 151.66 348.714C152.852 344.66 153.805 340.766 154.6 336.554C207.452 390.439 234.076 437.012 219.453 457.914C204.829 478.816 155.077 469.835 89.7476 440.35C38.7655 416.519 -9.87413 387.968 -55.535 355.072C-101.66 322.906 -144.684 286.507 -184.048 246.348C-233.641 194.609 -258.279 150.262 -243.894 129.995C-229.508 109.729 -176.259 119.186 -107.83 150.977Z" fill="#B75F00"/>
<path opacity="0.7" d="M83.707 210.743C75.7594 215.829 76.7926 230.93 85.6939 244.52C94.5953 258.111 108.186 264.787 115.974 259.621C123.763 254.455 122.809 239.434 113.908 225.923C105.007 212.412 91.4957 205.577 83.707 210.743Z" fill="white"/>
<path opacity="0.5" d="M10.4306 75.3156C12.8302 73.7884 14.8128 71.6888 16.2001 69.2056C17.5873 66.7224 18.3358 63.9335 18.3782 61.0894C20.0472 61.0894 21.0805 61.0894 21.8752 62.202C22.67 63.3147 20.6831 73.7261 14.4839 77.382C6.47983 81.3598 -2.32846 83.4532 -11.2664 83.5017C-13.3328 83.5017 -14.1275 82.389 -14.2865 81.5942C-5.71311 81.1579 2.68834 79.0237 10.4306 75.3156Z" fill="#FFFA94"/>
<path d="M-38.6069 63.553C-28.5134 85.091 -10.2339 91.2902 11.3042 81.2762C24.8152 74.9181 49.3733 66.732 51.5192 53.0621C52.7908 45.1145 40.3925 29.2193 36.6571 21.2716C30.9348 8.95284 15.437 3.3895 3.43607 0.369402C-5.78317 -1.93541 -13.7308 7.12488 -22.9501 11.4961C-33.7588 16.5031 -50.6873 21.669 -54.7406 32.0804C-58.7938 42.4918 -43.6139 52.5853 -38.6069 63.553Z" fill="#FFB208"/>
<path d="M17.583 7.91992C22.3516 11.0195 17.583 17.616 12.417 19.285C9.91583 19.8557 7.30518 19.7194 4.87703 18.8913C2.44887 18.0632 0.298939 16.576 -1.33236 14.5959C-4.5114 10.3042 -4.98827 3.23083 1.60826 3.46925C7.14077 4.06895 12.5374 5.57249 17.583 7.91992Z" fill="#FFD00B"/>
<path opacity="0.5" d="M14.404 10.8601C9.38326 8.52101 4.01417 7.01766 -1.49123 6.40945C-2.17432 6.28406 -2.87452 6.28406 -3.5576 6.40945C-3.46149 5.82876 -3.25115 5.2729 -2.93876 4.77406C-2.62637 4.27521 -2.21814 3.84327 -1.73769 3.50326C-1.25724 3.16325 -0.714108 2.92192 -0.139759 2.79323C0.434591 2.66454 1.02874 2.65105 1.60833 2.75355C7.11185 3.37146 12.4794 4.87437 17.5036 7.20422C21.239 9.5885 19.3316 14.1186 15.7551 16.8208C16.3534 15.8478 16.547 14.6791 16.2945 13.5651C16.042 12.4511 15.3634 11.4801 14.404 10.8601Z" fill="#FFFA94"/>
<path d="M-0.457464 23.0998C-3.71599 25.8814 -13.8095 27.2325 -15.7964 28.822C-17.7833 30.4116 -19.1344 30.491 -17.068 33.3522C-15.0016 36.2133 -12.4584 36.2928 -11.902 40.4256C-11.6523 43.9361 -12.5748 47.4303 -14.5248 50.3601C-15.7964 52.6649 -16.4322 54.175 -14.5248 59.023C-12.6173 63.8711 9.87445 60.7715 14.3251 57.354C18.7758 53.9365 25.5313 42.8099 23.3854 37.0081C21.2395 31.2063 22.5112 21.1128 17.1068 21.5102C11.7024 21.9076 4.39058 18.6491 -0.457464 23.0998Z" fill="#FFD00B"/>
<path opacity="0.5" d="M15.4377 46.7042C13.6097 40.9819 14.5634 30.8089 9.15903 30.8089C3.75464 30.8089 -3.87506 28.0273 -8.96154 32.4779C-10.8723 33.7713 -12.9985 34.7133 -15.2402 35.2596C-16.0329 34.5966 -16.7523 33.8506 -17.386 33.0343C-19.4524 30.1731 -18.1808 30.0142 -16.1144 28.5041C-14.048 26.9941 -3.95455 25.8814 -0.457592 23.0998C4.62889 18.6491 11.7023 21.9076 17.663 21.5102C23.6237 21.1128 22.1137 31.2858 23.9416 37.4055C25.7696 43.5251 18.6962 54.4134 14.2455 57.7514L13.0534 58.4667C15.3084 54.989 16.1604 50.7855 15.4377 46.7042Z" fill="#FFFA94"/>
<path d="M9.31736 62.679C1.76711 63.8711 -0.935066 60.851 -6.10102 66.6528C-9.1844 70.3766 -11.8496 74.4276 -14.0486 78.7332C-15.3997 80.7996 -16.0356 82.5481 -11.9823 83.4223C-3.04902 83.3352 5.75075 81.2439 13.768 77.3026C19.9672 73.6467 22.8283 64.4275 21.1593 62.1227C19.4903 59.8179 16.7881 61.4869 9.31736 62.679Z" fill="#FFD00B"/>
<path d="M28.948 14.9135C28.948 14.9135 25.2126 10.7808 22.0336 12.8471C18.8545 14.9135 20.7619 16.1057 21.4772 18.8079C22.1925 21.51 22.5104 21.0332 23.941 25.8812C25.4361 30.0935 26.4233 34.4691 26.8816 38.9153C26.8816 42.6507 24.4179 44.8761 24.3384 46.863C24.2589 48.8499 19.5698 55.6848 26.8022 54.8106C34.0345 53.9363 45.8764 50.201 46.5917 46.3066C47.307 42.4123 45.9559 40.028 42.6179 35.5773C39.8574 31.9573 37.5613 28.0057 35.783 23.8149C33.863 20.5891 31.5688 17.6013 28.948 14.9135Z" fill="#FFD00B"/>
<path opacity="0.5" d="M39.2799 47.658C39.9952 43.8431 38.7236 41.3793 35.3061 36.9287C32.5083 33.0758 30.2116 28.8829 28.4711 24.4509C26.6052 21.3486 24.3922 18.4689 21.8746 15.8675C21.4505 15.4107 20.9698 15.0101 20.4441 14.6753C20.8151 13.9868 21.364 13.4104 22.0336 13.0063C25.2126 10.9399 28.948 15.0727 28.948 15.0727C31.5588 17.7109 33.8527 20.6449 35.783 23.8151C37.5065 28.255 39.8044 32.45 42.6179 36.2929C45.9559 40.7435 47.307 43.2073 46.5917 47.0221C45.8764 50.837 34.114 55.6056 26.8022 55.6056H25.0537C31.3323 54.0955 39.2799 50.9165 39.2799 47.658Z" fill="#FFFA94"/>
<path d="M46.7509 58.2279C43.6012 61.9763 39.8716 65.1961 35.7037 67.765C33.081 69.5135 24.6565 74.2821 23.8618 71.262C23.067 68.2419 23.8618 68.0035 23.8618 64.7449C23.8618 61.4864 20.6827 60.7711 21.4775 58.3869C22.2722 56.0026 23.067 57.5921 26.7229 57.0358C31.0955 57.0981 35.4476 56.4265 39.5981 55.0489C41.7693 53.4709 44.0244 52.0117 46.3535 50.6777C49.2942 49.0881 48.1815 55.6052 46.7509 58.2279Z" fill="#FFD00B"/>
<g opacity="0.5">
<path d="M23.3846 67.7653C27.307 67.2852 31.0486 65.8377 34.2728 63.553C38.4137 60.9157 42.1373 57.6744 45.32 53.9364C45.8374 52.9899 46.2124 51.9722 46.4327 50.9163C49.0554 49.4857 48.0222 56.0823 46.4327 58.3871C43.3098 62.1838 39.5763 65.4338 35.3855 68.0037C32.7628 69.7522 24.3383 74.4413 23.5436 71.5006C23.1074 70.3015 23.0519 68.9971 23.3846 67.7653Z" fill="#FFFA94"/>
</g>
<path opacity="0.7" d="M27.4385 48.6113C27.8359 50.0419 30.1407 50.6777 32.6839 50.0419C35.2272 49.4061 36.8962 47.7371 36.4988 46.3065C36.1014 44.8759 33.7966 44.1606 31.3329 44.7964C28.8691 45.4323 27.1206 47.1807 27.4385 48.6113Z" fill="white"/>
<path opacity="0.7" d="M7.48981 15.8672C8.12562 16.8209 10.0331 16.7414 11.7815 15.8672C13.53 14.9929 14.4042 13.0855 13.7684 12.1318C13.1326 11.1781 11.2252 11.1781 9.47671 12.1318C7.72824 13.0855 7.48981 15.0724 7.48981 15.8672Z" fill="white"/>
<path opacity="0.7" d="M7.48931 74.1231C8.04564 75.1563 9.95308 75.2358 11.781 74.1231C13.609 73.0104 14.6422 71.5799 14.0858 70.5467C13.5295 69.5135 11.6221 69.434 9.79412 70.5467C7.96617 71.6593 7.48931 73.0899 7.48931 74.1231Z" fill="white"/>
<path opacity="0.7" d="M25.61 69.2751C25.61 69.9904 27.279 69.9904 28.5506 69.2751C29.8222 68.5598 30.3785 67.5267 30.0606 66.8114C29.7427 66.0961 28.3916 66.0961 27.1995 66.8114C26.0073 67.5267 25.292 68.5598 25.61 69.2751Z" fill="white"/>
<defs>
<linearGradient id="paint0_linear_1_2248" x1="77.9854" y1="228.784" x2="-221.481" y2="461.808" gradientUnits="userSpaceOnUse">
<stop/>
<stop offset="0.57"/>
<stop offset="0.61"/>
<stop offset="1" stop-color="#404040"/>
</linearGradient>
</defs>
</svg>
