<svg width="391" height="343" viewBox="0 0 391 343" fill="none" xmlns="http://www.w3.org/2000/svg">
<path d="M68.9232 66.3122C68.9232 73.1281 66.9021 79.7909 63.1154 85.4581C59.3287 91.1253 53.9465 95.5423 47.6495 98.1507C41.3524 100.759 34.4234 101.441 27.7384 100.112C21.0535 98.782 14.9131 95.4999 10.0935 90.6803C5.27396 85.8608 1.99181 79.7203 0.662095 73.0354C-0.667616 66.3505 0.01484 59.4214 2.62316 53.1243C5.23148 46.8273 9.64852 41.4451 15.3157 37.6584C20.9829 33.8717 27.6457 31.8506 34.4616 31.8506C43.6014 31.8506 52.3668 35.4814 58.8297 41.9442C65.2925 48.407 68.9232 57.1724 68.9232 66.3122Z" fill="#EDB656"/>
<path opacity="0.2" d="M42.9711 33.0559C47.6479 37.9241 50.7885 44.061 52.0015 50.7018C53.2145 57.3426 52.4463 64.1935 49.7925 70.4007C47.1388 76.6078 42.7169 81.8967 37.0781 85.6081C31.4392 89.3195 24.8328 91.2893 18.0822 91.272C15.1391 91.2573 12.2093 90.8762 9.36038 90.1375C12.9925 94.1118 17.5053 97.1797 22.5369 99.0955C27.5685 101.011 32.979 101.721 38.3346 101.169C43.6902 100.617 48.8418 98.817 53.3765 95.9146C57.9112 93.0122 61.7028 89.0877 64.4472 84.4557C67.1917 79.8237 68.8127 74.6132 69.1802 69.2417C69.5478 63.8703 68.6516 58.4875 66.5637 53.5248C64.4758 48.5622 61.2542 44.1578 57.1571 40.6647C53.06 37.1717 48.2015 34.6872 42.9711 33.4105V33.0559Z" fill="black"/>
<path d="M141.818 30.3615C141.832 35.7639 140.243 41.049 137.251 45.5478C134.26 50.0466 130.001 53.5567 125.014 55.6338C120.027 57.711 114.536 58.2617 109.236 57.2164C103.935 56.171 99.0642 53.5766 95.2392 49.7615C91.4141 45.9463 88.807 41.0821 87.7479 35.7845C86.6887 30.4869 87.2252 24.9942 89.2894 20.0017C91.3535 15.0091 94.8526 10.7413 99.3435 7.7384C103.834 4.7355 109.115 3.13259 114.518 3.13257C121.746 3.13254 128.679 5.99904 133.797 11.1034C138.914 16.2078 141.799 23.1334 141.818 30.3615Z" fill="#0CB0C1"/>
<path opacity="0.2" d="M121.68 4.0542C125.353 7.92552 127.812 12.7886 128.75 18.042C129.689 23.2955 129.068 28.7089 126.963 33.6129C124.858 38.517 121.362 42.6965 116.907 45.6347C112.452 48.5729 107.233 50.1409 101.897 50.1449C99.5058 50.1746 97.1216 49.8885 94.8057 49.294C97.7179 52.3296 101.292 54.6511 105.25 56.0773C109.207 57.5036 113.441 57.996 117.62 57.5162C121.799 57.0364 125.811 55.5972 129.342 53.3111C132.873 51.0251 135.828 47.9539 137.977 44.3372C140.125 40.7206 141.409 36.6565 141.727 32.4619C142.046 28.2674 141.391 24.056 139.813 20.1564C138.236 16.2568 135.778 12.7745 132.633 9.98134C129.487 7.18818 125.739 5.15969 121.68 4.0542Z" fill="black"/>
<path d="M195.566 5.04704C197.944 7.44165 199.56 10.4868 200.21 13.7985C200.86 17.1102 200.514 20.5402 199.218 23.6559C197.921 26.7717 195.73 29.4336 192.923 31.3062C190.115 33.1787 186.816 34.178 183.441 34.178C180.066 34.178 176.767 33.1787 173.959 31.3062C171.151 29.4336 168.961 26.7717 167.664 23.6559C166.367 20.5402 166.022 17.1102 166.671 13.7985C167.321 10.4868 168.937 7.44165 171.315 5.04704C172.904 3.44767 174.793 2.17833 176.874 1.31213C178.955 0.445939 181.187 0 183.441 0C185.695 0 187.927 0.445939 190.008 1.31213C192.089 2.17833 193.978 3.44767 195.566 5.04704Z" fill="#FFD685"/>
<path opacity="0.2" d="M174.718 2.49408C179.121 2.53799 183.327 4.32247 186.418 7.4577C188.018 9.04607 189.287 10.9352 190.153 13.0162C191.019 15.0972 191.465 17.329 191.465 19.5831C191.465 21.8372 191.019 24.069 190.153 26.15C189.287 28.231 188.018 30.1201 186.418 31.7085C185.396 32.72 184.253 33.6012 183.015 34.3321C185.328 34.3896 187.629 33.9725 189.776 33.1067C191.922 32.2408 193.868 30.9445 195.495 29.2976C198.443 26.357 200.217 22.4409 200.482 18.285C200.747 14.1291 199.485 10.0194 196.934 6.72809C194.383 3.43675 190.717 1.19024 186.627 0.410601C182.536 -0.369038 178.301 0.371853 174.718 2.49408Z" fill="black"/>
<path d="M37.7939 142.894C40.1962 145.293 41.8329 148.35 42.4969 151.68C43.161 155.009 42.8226 158.46 41.5245 161.597C40.2264 164.734 38.027 167.416 35.2045 169.302C32.3821 171.189 29.0634 172.196 25.6685 172.196C22.2736 172.196 18.9549 171.189 16.1325 169.302C13.31 167.416 11.1106 164.734 9.81251 161.597C8.51442 158.46 8.176 155.009 8.84007 151.68C9.50413 148.35 11.1408 145.293 13.5431 142.894C16.7696 139.698 21.1273 137.905 25.6685 137.905C30.2097 137.905 34.5674 139.698 37.7939 142.894Z" fill="#FFD685"/>
<path opacity="0.2" d="M17.3012 140.341C20.657 140.407 23.9189 141.461 26.6799 143.369C29.4409 145.278 31.5788 147.957 32.8266 151.073C34.0745 154.189 34.3772 157.604 33.6968 160.89C33.0165 164.177 31.3834 167.191 29.0011 169.555C27.9725 170.589 26.8027 171.473 25.5266 172.179C28.1678 172.241 30.7873 171.689 33.1793 170.567C35.5713 169.446 37.6707 167.785 39.3126 165.715C40.9545 163.645 42.0942 161.223 42.6421 158.639C43.19 156.054 43.1312 153.378 42.4704 150.82C41.8095 148.262 40.5646 145.892 38.8334 143.897C37.1023 141.901 34.9319 140.334 32.493 139.318C30.054 138.303 27.4128 137.867 24.7769 138.044C22.141 138.222 19.582 139.008 17.3012 140.341Z" fill="black"/>
<path d="M73.0359 259.255C171.245 357.393 332.846 357.393 448.356 288.115C452.729 286.685 457.298 285.943 461.9 285.917C463.224 277.866 464.076 269.745 464.452 261.595C341.851 333.284 202.09 344.629 84.594 247.413C81.4165 243.28 77.2885 239.974 72.5605 237.777C67.8326 235.58 62.6443 234.556 57.436 234.792C56.7269 241.102 56.7269 246.846 56.7269 252.944C56.7269 254.504 56.7269 256.135 56.7269 257.695C63.8178 256.561 69.4196 255.284 73.0359 259.255Z" fill="#D69630"/>
<path d="M68.2842 320.662C77.5068 346.814 91.9859 370.801 110.829 391.145C211.52 363.916 322.988 344.274 427.933 369.447C436.452 357.102 443.586 343.857 449.206 329.951C325.399 342.005 185.071 372.071 68.2842 320.662Z" fill="#FFD685"/>
<path d="M448.356 288.115C332.846 357.393 171.245 357.393 73.0359 259.255C69.4196 255.284 63.8178 256.56 56.7269 257.695C57.2083 279.159 61.0854 300.411 68.2141 320.662C185.001 372.071 325.329 341.934 449.42 329.951C455.197 315.785 459.359 301.014 461.829 285.917C457.251 285.95 452.707 286.692 448.356 288.115Z" fill="#EDB656"/>
<path d="M84.5947 247.697C201.949 344.629 341.852 333.284 464.453 261.595C464.453 258.759 464.453 255.851 464.453 252.944C464.485 227.034 459.575 201.355 449.988 177.284C366.386 299.815 213.081 229.119 107.711 190.332C95.3513 185.52 82.1864 183.113 68.9239 183.241C62.8887 199.857 59.0277 217.185 57.4366 234.791C62.6693 234.588 67.8733 235.656 72.6031 237.904C77.3329 240.151 81.4475 243.511 84.5947 247.697Z" fill="#0CB0C1"/>
<path d="M416.802 121.975C413.327 117.934 409.711 113.963 406.095 110.205C338.731 166.932 220.455 150.552 148.128 91.7683C145.795 90.2594 143.297 89.0223 140.683 88.0811C129.598 96.2022 119.359 105.42 110.121 115.594C211.45 149.772 321.004 198.557 416.802 121.975Z" fill="#D69630"/>
<path d="M429.564 139.065C425.594 133.179 421.339 127.436 416.801 121.976C321.003 198.77 211.165 149.772 110.12 115.594C106.079 119.99 102.25 124.599 98.5623 129.35C207.124 153.743 343.127 222.524 429.564 139.065Z" fill="#EDB656"/>
<path d="M444.74 165.23C440.324 156.151 435.252 147.406 429.565 139.065C343.127 222.524 207.124 153.743 98.5631 129.35C90.6869 139.645 83.8018 150.661 77.9995 162.252C191.454 188.843 347.453 252.802 444.74 165.23Z" fill="#FFD685"/>
<path d="M77.9991 162.252C74.5242 169.016 71.4462 175.977 68.781 183.099C82.0436 182.972 95.2084 185.378 107.568 190.19C213.08 228.764 366.385 299.46 449.986 177.284C448.356 173.313 446.583 169.414 444.739 165.584C347.452 252.802 191.453 188.842 77.9991 162.252Z" fill="#EDB656"/>
<path d="M363.124 76.523C338.661 85.3866 310.297 89.712 286.685 97.7956C238.538 112.616 207.054 89.4284 172.309 69.4321C161.237 74.813 150.656 81.1478 140.683 88.3648C143.298 89.306 145.796 90.5432 148.129 92.052C220.456 150.835 338.732 167.144 406.095 110.488C393.345 97.3067 378.894 85.8843 363.124 76.523Z" fill="#0CB0C1"/>
<path d="M330.789 61.4194C297.462 96.8738 235.275 76.9485 190.177 61.4194C184.079 63.6885 178.123 66.0994 172.308 68.9358C207.054 89.0029 238.537 112.19 286.684 97.2993C310.297 89.4284 338.66 85.103 363.124 76.0266C352.784 70.2404 341.966 65.3534 330.789 61.4194Z" fill="#D69630"/>
<path d="M310.226 55.1085C293.997 51.0247 277.326 48.9528 260.59 48.9395C248.965 48.9438 237.363 49.9641 225.916 51.9885C253.641 68.0139 290.017 84.1102 310.226 55.1085Z" fill="#FFD685"/>
<path d="M310.226 55.1085C290.017 84.1102 253.499 68.0139 225.987 51.9885C213.78 54.0976 201.793 57.3257 190.178 61.6321C235.276 76.9484 297.463 97.0865 330.79 61.6321C324.124 59.0085 317.175 56.7394 310.226 55.1085Z" fill="#EDB656"/>
<path d="M112.533 214.937C112.533 219.191 107.356 222.666 100.975 222.666C94.5929 222.666 89.4166 219.191 89.4166 214.937C89.4166 210.682 94.5929 207.279 100.975 207.279C107.356 207.279 112.533 210.682 112.533 214.937Z" fill="#007272"/>
<path d="M210.67 247.2C210.67 251.455 205.493 254.93 199.111 254.93C192.73 254.93 187.553 251.455 187.553 247.2C187.553 242.946 192.73 239.471 199.111 239.471C205.493 239.471 210.67 242.946 210.67 247.2Z" fill="#007272"/>
<path d="M326.18 275.138C326.18 279.322 321.004 282.797 314.622 282.797C308.24 282.797 303.135 279.322 303.135 275.138C303.135 270.955 308.24 267.409 314.622 267.409C321.004 267.409 326.18 270.884 326.18 275.138Z" fill="#007272"/>
<path d="M288.101 118.288C288.101 122.543 282.925 125.947 276.543 125.947C270.161 125.947 265.056 122.543 265.056 118.288C265.056 114.034 270.161 110.559 276.543 110.559C282.925 110.559 288.101 114.034 288.101 118.288Z" fill="#007272"/>
<path d="M347.028 113.892C347.028 115.452 345.255 116.657 342.986 116.657C340.717 116.657 338.873 115.452 338.873 113.892C338.873 112.332 340.717 111.198 342.986 111.198C345.255 111.198 347.028 112.403 347.028 113.892Z" fill="#007272"/>
<path d="M375.817 95.1719C375.817 96.661 374.044 97.8665 371.775 97.8665C369.506 97.8665 367.662 96.661 367.662 95.1719C367.662 93.6829 369.506 92.4065 371.775 92.4065C374.044 92.4065 375.817 93.6829 375.817 95.1719Z" fill="#007272"/>
<path d="M200.813 111.552C200.813 113.041 198.969 114.247 196.7 114.247C194.431 114.247 192.587 113.041 192.587 111.552C192.587 110.063 194.431 108.787 196.7 108.787C198.969 108.787 200.813 109.992 200.813 111.552Z" fill="#007272"/>
<path d="M221.519 105.241C221.519 106.801 219.676 108.007 217.407 108.007C215.138 108.007 213.294 106.801 213.294 105.241C213.294 103.681 215.138 102.547 217.407 102.547C219.676 102.547 221.519 103.752 221.519 105.241Z" fill="#007272"/>
<path d="M166.139 86.0249C166.139 87.5139 164.296 88.7903 162.098 88.7903C159.899 88.7903 157.985 87.5139 157.985 86.0249C157.985 84.5358 159.829 83.3303 162.098 83.3303C164.367 83.3303 166.139 84.5358 166.139 86.0249Z" fill="#007272"/>
<path d="M90.1254 235.5C90.1254 236.989 88.2817 238.195 86.0836 238.195C83.8854 238.195 81.9709 236.989 81.9709 235.5C81.9709 234.011 83.8145 232.735 86.0836 232.735C88.3526 232.735 90.1254 234.011 90.1254 235.5Z" fill="#007272"/>
<path d="M135.861 213.519C135.861 215.008 134.017 216.284 131.748 216.284C129.479 216.284 127.636 215.008 127.636 213.519C127.636 212.03 129.479 210.824 131.748 210.824C134.017 210.824 135.861 212.03 135.861 213.519Z" fill="#007272"/>
<path d="M154.58 248.193C154.58 249.682 152.808 250.888 150.539 250.888C148.269 250.888 146.426 249.682 146.426 248.193C146.426 246.704 148.269 245.428 150.539 245.428C152.808 245.428 154.58 246.633 154.58 248.193Z" fill="#007272"/>
<path d="M135.861 260.177C135.861 261.666 134.017 262.942 131.748 262.942C129.479 262.942 127.636 261.666 127.636 260.177C127.636 258.688 129.479 257.482 131.748 257.482C134.017 257.482 135.861 258.688 135.861 260.177Z" fill="#007272"/>
<path d="M209.464 269.466C209.464 270.955 207.62 272.231 205.351 272.231C203.082 272.231 201.309 270.955 201.309 269.466C201.309 267.977 203.082 266.771 205.351 266.771C207.62 266.771 209.464 267.835 209.464 269.466Z" fill="#007272"/>
<path d="M185.852 228.41C185.852 229.97 184.079 231.175 181.81 231.175C179.541 231.175 177.698 229.97 177.698 228.41C177.698 226.85 179.541 225.715 181.81 225.715C184.079 225.715 185.852 226.921 185.852 228.41Z" fill="#007272"/>
<path d="M205.139 286.129C205.139 287.689 203.295 288.895 201.026 288.895C198.757 288.895 196.914 287.689 196.914 286.129C196.914 284.569 198.545 283.647 201.026 283.647C203.508 283.647 205.139 284.64 205.139 286.129Z" fill="#007272"/>
<path d="M258.534 278.968C258.534 280.457 256.69 281.662 254.421 281.662C252.152 281.662 250.379 280.457 250.379 278.968C250.379 277.479 252.152 276.202 254.421 276.202C256.69 276.202 258.534 277.479 258.534 278.968Z" fill="#007272"/>
<path d="M293.207 309.742C293.207 311.231 291.364 312.436 289.094 312.436C286.825 312.436 284.982 311.231 284.982 309.742C284.982 308.253 286.825 307.047 289.094 307.047C291.364 307.047 293.207 308.253 293.207 309.742Z" fill="#007272"/>
<path d="M296.045 287.618C296.045 289.108 294.201 290.313 292.003 290.313C289.805 290.313 287.89 289.108 287.89 287.618C287.89 286.129 289.734 284.853 292.003 284.853C294.272 284.853 296.045 286.129 296.045 287.618Z" fill="#007272"/>
<path d="M339.369 256.348C339.369 257.837 337.525 259.042 335.256 259.042C332.987 259.042 331.143 257.837 331.143 256.348C331.143 254.859 332.987 253.653 335.256 253.653C337.525 253.653 339.369 254.859 339.369 256.348Z" fill="#007272"/>
<path d="M351.352 262.375C351.352 263.864 349.579 265.07 347.31 265.07C345.041 265.07 343.198 263.864 343.198 262.375C343.198 260.886 345.041 259.68 347.31 259.68C349.579 259.68 351.352 261.099 351.352 262.375Z" fill="#007272"/>
<path d="M124.302 242.591C124.302 245.428 120.899 247.697 116.715 247.697C112.531 247.697 109.128 245.428 109.128 242.591C109.128 239.755 112.531 237.557 116.715 237.557C120.899 237.557 124.302 239.826 124.302 242.591Z" fill="#007272"/>
<path d="M157.984 226.282C157.984 229.048 154.58 231.317 150.397 231.317C146.213 231.317 142.809 229.048 142.809 226.282C142.809 223.517 146.213 221.248 150.397 221.248C154.58 221.248 157.984 223.446 157.984 226.282Z" fill="#007272"/>
<path d="M169.046 277.762C169.046 280.527 165.642 282.797 161.459 282.797C157.275 282.797 153.872 280.527 153.872 277.762C153.872 274.997 157.275 272.728 161.459 272.728C165.642 272.728 169.046 274.926 169.046 277.762Z" fill="#007272"/>
<path d="M239.742 264.786C239.742 267.551 236.338 269.82 232.155 269.82C227.971 269.82 224.638 267.551 224.638 264.786C224.638 262.02 227.971 259.68 232.155 259.68C236.338 259.68 239.742 261.95 239.742 264.786Z" fill="#007272"/>
<path d="M264.276 302.793C264.276 305.558 260.873 307.827 256.689 307.827C252.505 307.827 249.173 305.558 249.173 302.793C249.173 300.027 252.505 297.829 256.689 297.829C260.873 297.829 264.276 299.956 264.276 302.793Z" fill="#007272"/>
<path d="M284.982 266.7C284.982 269.466 281.579 271.735 277.395 271.735C273.212 271.735 269.808 269.466 269.808 266.7C269.808 263.935 273.212 261.595 277.395 261.595C281.579 261.595 284.982 263.864 284.982 266.7Z" fill="#007272"/>
<path d="M384.61 258.475C384.61 261.311 381.206 263.58 377.022 263.58C372.839 263.58 369.435 261.311 369.435 258.475C369.435 255.639 372.839 253.44 377.022 253.44C381.206 253.44 384.61 255.71 384.61 258.475Z" fill="#007272"/>
<path d="M337.525 298.184C337.525 301.02 334.193 303.289 330.009 303.289C325.825 303.289 322.422 301.02 322.422 298.184C322.422 295.347 325.825 293.149 330.009 293.149C334.193 293.149 337.525 295.418 337.525 298.184Z" fill="#007272"/>
<path d="M358.23 93.7539C358.23 96.5193 354.827 98.7884 350.643 98.7884C346.459 98.7884 343.056 96.5193 343.056 93.7539C343.056 90.9884 346.459 88.6484 350.643 88.6484C354.827 88.6484 358.23 90.9175 358.23 93.7539Z" fill="#007272"/>
<path d="M319.728 130.768C319.728 133.534 316.395 135.803 312.211 135.803C308.028 135.803 304.908 133.534 304.908 130.768C304.908 128.003 308.311 125.734 312.495 125.734C316.678 125.734 319.728 128.003 319.728 130.768Z" fill="#007272"/>
<path d="M320.224 101.412C320.224 104.177 316.82 106.446 312.637 106.446C308.453 106.446 304.908 104.177 304.908 101.412C304.908 98.6465 308.311 96.3774 312.495 96.3774C316.678 96.3774 320.224 98.6465 320.224 101.412Z" fill="#007272"/>
<path d="M379.433 112.97C379.433 115.736 376.03 118.005 371.846 118.005C367.663 118.005 364.259 115.736 364.259 112.97C364.259 110.205 367.663 107.936 371.846 107.936C376.03 107.936 379.433 110.205 379.433 112.97Z" fill="#007272"/>
<path d="M192.73 90.3502C192.73 93.1865 189.326 95.3847 185.143 95.3847C180.959 95.3847 177.272 93.1865 177.272 90.3502C177.272 87.5138 180.675 85.3157 184.859 85.3157C189.043 85.3157 192.73 87.5848 192.73 90.3502Z" fill="#007272"/>
<path d="M241.09 122.117C241.09 124.883 237.758 127.152 233.574 127.152C229.39 127.152 225.987 124.883 225.987 122.117C225.987 119.352 229.39 117.083 233.574 117.083C237.758 117.083 241.09 119.352 241.09 122.117Z" fill="#007272"/>
<path d="M180.959 287.618C180.959 289.604 178.548 291.235 175.57 291.235C172.592 291.235 170.11 289.604 170.11 287.618C170.11 285.633 172.521 284.002 175.57 284.002C178.619 284.002 180.959 285.633 180.959 287.618Z" fill="#007272"/>
<path d="M181.456 266.417C181.456 268.402 179.045 270.033 175.996 270.033C172.947 270.033 170.607 268.402 170.607 266.417C170.607 264.431 173.018 262.8 175.996 262.8C178.974 262.8 181.456 264.431 181.456 266.417Z" fill="#007272"/>
<path d="M83.7434 210.611C83.7434 212.597 81.3325 214.228 78.3543 214.228C75.3762 214.228 72.9653 212.597 72.9653 210.611C72.9653 208.626 75.3762 206.995 78.3543 206.995C81.3325 206.995 83.7434 208.626 83.7434 210.611Z" fill="#007272"/>
<path d="M254.066 256.348C254.066 258.333 251.655 259.964 248.677 259.964C245.699 259.964 243.288 258.333 243.288 256.348C243.288 254.362 245.699 252.731 248.677 252.731C251.655 252.731 254.066 254.362 254.066 256.348Z" fill="#007272"/>
<path d="M368.086 279.889C368.086 281.946 365.675 283.506 362.697 283.506C359.719 283.506 357.237 281.946 357.237 279.889C357.237 277.833 359.719 276.273 362.697 276.273C365.675 276.273 368.086 277.904 368.086 279.889Z" fill="#007272"/>
<path d="M387.375 274.146C387.375 276.131 384.893 277.762 381.915 277.762C378.937 277.762 376.526 276.131 376.526 274.146C376.526 272.16 378.937 270.53 381.915 270.53C384.893 270.53 387.375 272.16 387.375 274.146Z" fill="#007272"/>
<path d="M224.285 302.509C224.285 304.495 221.803 306.126 218.825 306.126C215.847 306.126 213.436 304.495 213.436 302.509C213.436 300.524 215.847 298.893 218.825 298.893C221.803 298.893 224.285 300.524 224.285 302.509Z" fill="#007272"/>
<path d="M88.7076 197.422C88.7076 200.188 85.3039 202.457 81.1203 202.457C76.9367 202.457 73.5331 200.188 73.5331 197.422C73.5331 194.657 76.9367 192.317 81.1203 192.317C85.3039 192.317 88.7076 194.586 88.7076 197.422Z" fill="#007272"/>
<path opacity="0.2" d="M317.883 57.165C328.16 92.282 328.799 129.517 319.734 164.966C310.669 200.415 292.234 232.773 266.361 258.646C240.488 284.518 208.131 302.954 172.682 312.019C137.233 321.084 99.9976 320.444 64.8806 310.168C74.8088 344.173 93.4209 375.007 118.885 399.635C144.349 424.263 175.788 441.836 210.106 450.623C244.424 459.41 280.439 459.11 314.606 449.751C348.772 440.391 379.913 422.297 404.963 397.247C430.012 372.198 448.107 341.057 457.466 306.89C466.825 272.724 467.126 236.709 458.338 202.39C449.551 168.072 431.979 136.634 407.351 111.17C382.723 85.7054 351.889 67.0932 317.883 57.165Z" fill="url(#paint0_linear_1_2107)"/>
<path opacity="0.7" d="M191.454 106.376C197.552 114.53 191.099 129.705 177.272 140.341C163.445 150.977 146.852 152.963 140.754 144.879C134.656 136.795 140.754 121.55 154.936 110.985C169.117 100.419 185.497 98.0083 191.454 106.376Z" fill="white"/>
<defs>
<linearGradient id="paint0_linear_1_2107" x1="148.269" y1="165.514" x2="493.17" y2="433.832" gradientUnits="userSpaceOnUse">
<stop/>
<stop offset="0.57"/>
<stop offset="0.61"/>
<stop offset="1" stop-color="#404040"/>
</linearGradient>
</defs>
</svg>
