<svg width="144" height="143" viewBox="0 0 144 143" fill="none" xmlns="http://www.w3.org/2000/svg">
<path d="M11.782 8.94503C11.782 10.7142 11.2574 12.4436 10.2745 13.9146C9.29157 15.3856 7.89454 16.5321 6.26005 17.2092C4.62556 17.8862 2.82702 18.0633 1.09185 17.7182C-0.643316 17.373 -2.23717 16.5211 -3.48815 15.2701C-4.73914 14.0191 -5.59107 12.4253 -5.93621 10.6901C-6.28136 8.95495 -6.10422 7.1564 -5.42719 5.52191C-4.75016 3.88742 -3.60365 2.4904 -2.13265 1.50751C-0.661649 0.524617 1.06778 0 2.83694 0C5.20931 0 7.48451 0.94242 9.16203 2.61994C10.8395 4.29746 11.782 6.57266 11.782 8.94503Z" fill="#458DF4"/>
<path opacity="0.2" d="M5.20695 0.162598C6.42013 1.42569 7.23472 3.0179 7.5492 4.74077C7.86369 6.46364 7.66415 8.24096 6.97546 9.85121C6.28677 11.4615 5.13939 12.8334 3.67634 13.796C2.21329 14.7587 0.499276 15.2694 -1.25205 15.2646C-2.03467 15.2615 -2.81431 15.168 -3.57544 14.9858C-2.62125 15.983 -1.44923 16.7459 -0.151109 17.2148C1.14701 17.6836 2.53602 17.8457 3.90723 17.6884C5.27843 17.5311 6.59463 17.0586 7.75282 16.3079C8.91101 15.5572 9.87977 14.5487 10.5833 13.3612C11.2868 12.1738 11.706 10.8397 11.8081 9.46325C11.9102 8.08683 11.6924 6.70546 11.1717 5.42724C10.651 4.14901 9.84162 3.00862 8.80683 2.09529C7.77205 1.18196 6.53995 0.520473 5.20695 0.162598Z" fill="black"/>
<path d="M125.419 15.59C125.419 17.8233 124.756 20.0064 123.516 21.8633C122.275 23.7202 120.511 25.1675 118.448 26.0221C116.385 26.8768 114.115 27.1004 111.924 26.6647C109.734 26.229 107.722 25.1536 106.143 23.5744C104.563 21.9952 103.488 19.9833 103.052 17.7929C102.617 15.6025 102.84 13.3322 103.695 11.2689C104.55 9.20561 105.997 7.44209 107.854 6.20135C109.711 4.96061 111.894 4.29836 114.127 4.29836C115.611 4.2953 117.08 4.58528 118.452 5.15165C119.823 5.71803 121.069 6.54964 122.118 7.59878C123.167 8.64792 123.999 9.89391 124.565 11.2653C125.132 12.6366 125.422 14.1063 125.419 15.59Z" fill="#458DF4"/>
<path opacity="0.2" d="M117.24 4.64673C118.76 6.25014 119.777 8.26333 120.166 10.4379C120.555 12.6125 120.299 14.8535 119.429 16.8842C118.559 18.915 117.114 20.6467 115.272 21.8659C113.43 23.0851 111.271 23.7383 109.062 23.7449C108.103 23.7441 107.15 23.6112 106.227 23.35C107.418 24.6522 108.896 25.6574 110.545 26.2851C112.193 26.9128 113.966 27.1455 115.721 26.9645C117.476 26.7835 119.164 26.1939 120.65 25.2429C122.136 24.2919 123.378 23.006 124.277 21.4883C125.176 19.9706 125.707 18.2633 125.828 16.5033C125.948 14.7433 125.655 12.9796 124.971 11.3535C124.286 9.72749 123.231 8.28435 121.888 7.13982C120.546 5.9953 118.954 5.18124 117.24 4.7629V4.64673Z" fill="black"/>
<path d="M143.727 45.5382C143.727 47.7715 143.065 49.9546 141.824 51.8115C140.583 53.6684 138.82 55.1157 136.756 55.9704C134.693 56.825 132.423 57.0486 130.232 56.6129C128.042 56.1772 126.03 55.1018 124.451 53.5226C122.872 51.9435 121.796 49.9315 121.361 47.7411C120.925 45.5508 121.149 43.2804 122.003 41.2171C122.858 39.1538 124.305 37.3903 126.162 36.1496C128.019 34.9088 130.202 34.2466 132.435 34.2466C135.43 34.2466 138.302 35.4362 140.42 37.5538C142.537 39.6714 143.727 42.5435 143.727 45.5382Z" fill="#A6CAFF"/>
<path opacity="0.2" d="M135.386 34.6416C136.906 36.245 137.923 38.2582 138.312 40.4328C138.701 42.6074 138.444 44.8483 137.575 46.8791C136.705 48.9098 135.26 50.6416 133.418 51.8608C131.576 53.0799 129.417 53.7331 127.208 53.7398C126.253 53.7693 125.3 53.6677 124.373 53.4378C125.563 54.74 127.042 55.7452 128.691 56.3729C130.339 57.0006 132.112 57.2333 133.867 57.0523C135.622 56.8713 137.31 56.2817 138.795 55.3307C140.281 54.3797 141.524 53.0938 142.423 51.5761C143.322 50.0584 143.853 48.3511 143.974 46.5911C144.094 44.8311 143.8 43.0674 143.116 41.4413C142.432 39.8153 141.377 38.3722 140.034 37.2276C138.692 36.0831 137.1 35.269 135.386 34.8507V34.6416Z" fill="black"/>
<path d="M0.583294 145.328C0.583294 147.561 -0.0789509 149.744 -1.31969 151.601C-2.56043 153.458 -4.32395 154.905 -6.38723 155.76C-8.4505 156.615 -10.7209 156.838 -12.9112 156.402C-15.1016 155.967 -17.1136 154.891 -18.6927 153.312C-20.2719 151.733 -21.3473 149.721 -21.783 147.531C-22.2187 145.34 -21.9951 143.07 -21.1405 141.007C-20.2858 138.943 -18.8386 137.18 -16.9817 135.939C-15.1248 134.698 -12.9416 134.036 -10.7084 134.036C-9.22465 134.033 -7.75495 134.323 -6.38361 134.889C-5.01226 135.456 -3.76626 136.287 -2.71712 137.337C-1.66799 138.386 -0.836369 139.632 -0.269995 141.003C0.296379 142.374 0.586355 143.844 0.583294 145.328Z" fill="#A6CAFF"/>
<path opacity="0.2" d="M-7.92037 134.431C-6.39121 136.029 -5.36506 138.041 -4.9693 140.217C-4.57354 142.393 -4.8256 144.638 -5.69419 146.672C-6.56278 148.706 -8.00964 150.44 -9.85517 151.659C-11.7007 152.878 -13.8636 153.528 -16.0754 153.529C-17.0341 153.53 -17.9881 153.397 -18.91 153.134C-17.7199 154.439 -16.2404 155.446 -14.5904 156.075C-12.9404 156.704 -11.1659 156.937 -9.40939 156.756C-7.6529 156.575 -5.96339 155.984 -4.47657 155.031C-2.98976 154.079 -1.74709 152.791 -0.848379 151.271C0.0503273 149.751 0.580019 148.041 0.698147 146.279C0.816273 144.517 0.519543 142.752 -0.168209 141.126C-0.855963 139.5 -1.91557 138.057 -3.2619 136.915C-4.60824 135.772 -6.20379 134.961 -7.92037 134.547V134.431Z" fill="black"/>
<path d="M90.1032 22.6763C88.8384 22.8237 87.6356 23.3048 86.6181 24.0703C84.7362 25.9755 88.5233 31.6446 92.2872 35.4317C96.0743 42.9827 90.4052 54.344 79.0439 50.5569C69.5877 44.8878 71.4929 31.6446 65.8006 27.8574C48.7934 20.2832 65.8006 48.7679 56.3444 52.4388C35.5501 58.0847 52.5805 31.6446 43.0547 20.2832H35.5501C31.763 25.9755 29.8811 39.1956 24.1888 31.6446C22.737 30.6538 21.529 29.3466 20.6557 27.8213C19.7824 26.296 19.2665 24.5925 19.147 22.8389C16.3898 24.5961 13.7651 26.553 11.294 28.6939C13.0518 29.5202 14.6086 30.7193 15.8564 32.2078C17.1042 33.6963 18.013 35.4386 18.5197 37.3136C18.5197 42.9827 10.9455 50.5569 16.6378 56.226C26.094 61.9182 27.9759 44.8878 35.5501 48.675C46.8883 52.4388 35.5501 69.5854 39.3373 78.879C41.2192 80.7841 46.8883 84.5712 50.6754 84.5712C60.1315 80.7841 54.4625 67.5408 60.1315 65.6357C71.4929 59.9666 73.3748 86.5461 88.5233 78.879C96.0743 75.0918 92.2872 63.7537 96.0743 58.0847C99.8614 50.5104 109.318 65.6357 113.105 59.9666C114.739 58.6992 116.105 57.1197 117.124 55.3198C111.896 41.7961 102.412 30.3389 90.1032 22.6763Z" fill="#66ACFF"/>
<path d="M27.4648 140.402C24.9544 138.113 21.924 136.47 18.636 135.616C21.4475 137.443 24.3998 139.043 27.4648 140.402Z" fill="#2B5DC1"/>
<path d="M94.1693 126.23C84.7132 130.017 77.1389 131.899 67.6828 137.568C62.0137 143.237 54.4395 128.112 44.9833 135.686C43.652 139.017 41.5311 141.975 38.8031 144.305C51.8374 147.511 65.5353 146.714 78.1098 142.018C90.6843 137.322 101.552 128.946 109.295 117.982C102.696 116.471 97.6544 124.487 94.1693 126.23Z" fill="#2146A3"/>
<path d="M97.9794 103.53C96.0743 107.317 97.9794 116.773 94.1923 116.773C82.831 116.773 79.0439 120.56 69.5877 128.111C62.0367 133.78 60.1315 118.655 54.4625 118.655C45.0063 116.773 43.1011 137.567 33.552 126.229C29.7881 122.442 31.6701 114.868 29.7881 111.081C24.0958 107.317 18.4268 111.081 14.6397 112.986C1.39637 120.56 -0.485571 107.317 -2.39075 95.9556C-3.27363 93.2837 -7.03751 91.4715 -11.0802 91.3088C-9.43436 100.339 -5.94652 108.933 -0.834004 116.555C4.27851 124.178 10.9061 130.666 18.6359 135.616C21.9239 136.47 24.9543 138.113 27.4647 140.402C31.1271 142.041 34.9295 143.348 38.8261 144.305C41.5541 141.975 43.675 139.017 45.0063 135.685C54.4625 128.111 62.0367 143.236 67.7057 137.567C77.1619 131.898 84.7361 130.109 94.1691 126.229C97.6309 124.487 102.673 116.471 109.271 117.981C112.254 113.812 114.734 109.304 116.659 104.552C109.922 102.484 103.463 98.0467 97.9794 103.53Z" fill="#2B5DC1"/>
<path d="M29.8812 111.081C31.7632 114.868 29.8812 122.442 33.6451 126.229C43.1013 137.568 45.0065 116.773 54.5556 118.655C60.2246 118.655 62.1298 133.78 69.6808 128.111C79.137 120.56 82.9241 116.773 94.2854 116.773C98.0725 116.773 96.1674 107.317 98.0725 103.53C103.556 98.0468 110.015 102.484 116.66 104.622C119.936 96.6137 121.617 88.0426 121.608 79.39C115.173 77.9263 108.319 72.9542 105.531 77.0666C99.8615 80.8537 107.436 105.435 94.1925 99.7661C88.5234 97.8609 82.8311 92.1918 75.2801 94.097C69.5879 97.8609 75.2801 107.34 69.5879 111.104C56.3446 114.891 60.1317 90.1937 46.8884 97.8609C41.2193 101.648 41.2193 114.891 31.7632 111.104C12.8508 103.553 31.7632 82.7357 24.1889 73.2795C18.5199 61.9414 9.0637 95.9789 -0.392475 80.8537C-8.05964 69.4691 9.0637 60.013 3.39464 48.791C2.84109 47.7194 2.0659 46.7777 1.12054 46.0287C0.175173 45.2796 -0.918734 44.7402 -2.08855 44.4463C-10.795 58.4367 -13.9682 75.1723 -10.9871 91.3787C-7.01412 91.5878 -3.18054 93.4 -2.29765 96.0254C-0.392476 107.387 1.48947 120.63 14.7328 113.056C18.5199 111.081 24.1889 107.317 29.8812 111.081Z" fill="#3C79DD"/>
<path d="M-0.392454 80.8304C9.06372 95.9556 18.5199 61.918 24.1889 73.2561C31.7632 82.7123 12.8508 103.46 31.7632 111.081C41.2193 114.868 41.2193 101.625 46.8884 97.8376C60.1317 90.2866 56.3446 114.868 69.5879 111.081C75.2802 107.317 69.5879 97.8376 75.2802 94.0737C82.8312 92.1685 88.5234 97.8376 94.1925 99.7427C107.436 105.412 99.8616 80.8304 105.531 77.0433C108.319 72.8844 115.173 77.8564 121.608 79.3666C121.6 71.1892 120.079 63.0839 117.124 55.459C116.105 57.2589 114.739 58.8384 113.105 60.1058C109.318 65.7749 99.8616 50.6496 96.0744 58.2239C92.2873 63.8929 96.0744 75.231 88.5234 79.1343C73.375 86.7085 71.493 60.222 60.1317 65.891C54.4626 67.7962 60.1317 81.0395 50.6755 84.8266C46.8884 84.8266 41.2193 81.0395 39.3374 79.1343C35.5503 69.6781 46.8884 52.6477 35.5503 48.9303C27.9761 45.1432 26.0941 62.1736 16.6379 56.4813C10.9457 50.8123 18.5199 43.238 18.5199 37.569C18.0132 35.6939 17.1043 33.9516 15.8566 32.4631C14.6088 30.9746 13.0519 29.7756 11.2942 28.9492C6.05306 33.4395 1.5387 38.7141 -2.08853 44.5856C-0.93114 44.8637 0.154956 45.3818 1.09949 46.1062C2.04402 46.8306 2.82594 47.7452 3.39466 48.7909C9.06372 60.0129 -8.05962 69.469 -0.392454 80.8304Z" fill="#458DF4"/>
<path d="M69.5879 24.0702C74.467 27.7412 75.4196 21.9559 75.4661 15.8687C66.2794 12.801 56.5202 11.8402 46.9117 13.0574C47.6784 16.1475 48.1198 19.5164 48.7936 22.1883C56.3446 16.496 60.1317 18.4012 69.5879 24.0702Z" fill="#DCECFF"/>
<path d="M92.2872 35.4316C88.5233 31.6444 84.7362 25.9754 86.6181 24.0702C87.6356 23.3047 88.8384 22.8236 90.1032 22.6762C85.5541 19.8315 80.6785 17.5458 75.582 15.8687C75.582 21.9559 74.583 27.7412 69.7039 24.0702C60.2477 18.4012 56.4606 16.496 48.7934 22.1883C48.1196 19.5164 47.7014 16.2636 46.9115 13.0574C37.0425 14.2042 27.5556 17.5465 19.147 22.8388C19.2665 24.5924 19.7824 26.2959 20.6557 27.8212C21.529 29.3465 22.737 30.6537 24.1888 31.6444C29.8811 39.1954 31.763 25.9754 35.5501 20.2831H43.0547C52.5341 31.6444 35.5037 58.131 56.2979 52.4387C65.8006 48.791 48.7934 20.2831 65.8006 27.8806C71.4929 31.6677 69.5877 44.911 79.0439 50.58C90.4052 54.3439 96.0743 42.9826 92.2872 35.4316Z" fill="#A6CAFF"/>
<path opacity="0.2" d="M73.5144 15.4736C76.8817 26.98 77.0912 39.1804 74.121 50.7956C71.1508 62.4108 65.1103 73.0129 56.6329 81.4904C48.1554 89.9679 37.5532 96.0084 25.938 98.9786C14.3228 101.949 2.12245 101.739 -9.38391 98.372C-1.92585 123.976 24.2355 146.373 54.6718 146.373C70.705 146.311 86.1818 140.488 98.2794 129.966C110.377 119.443 118.29 104.923 120.574 89.0537C122.859 73.1839 119.363 57.0217 110.724 43.5146C102.085 30.0075 88.8792 20.0555 73.5144 15.4736Z" fill="url(#paint0_linear_1_2225)"/>
<path opacity="0.7" d="M28.2548 34.1074C30.253 36.7561 28.1387 41.7513 23.6081 45.2132C19.0775 48.675 13.6408 49.372 11.6427 46.7234C9.64454 44.0747 11.6427 39.0794 16.2894 35.5944C20.9362 32.1093 26.2335 31.4587 28.2548 34.1074Z" fill="white"/>
<defs>
<linearGradient id="paint0_linear_1_2225" x1="18.0785" y1="50.7891" x2="131.111" y2="138.729" gradientUnits="userSpaceOnUse">
<stop/>
<stop offset="0.57"/>
<stop offset="0.61"/>
<stop offset="1" stop-color="#404040"/>
</linearGradient>
</defs>
</svg>
