<svg width="1440" height="536" viewBox="0 0 1440 536" fill="none" xmlns="http://www.w3.org/2000/svg">
<path d="M1303.6 -475.014C1295.48 -498.761 1285.92 -521.99 1274.97 -544.573C1264.09 -567.155 1369.33 -675.223 1355.62 -696.192C1345.54 -711.717 1217.31 -640.545 1206.02 -655.868C1189.58 -677.142 1171.8 -697.345 1152.79 -716.354C1141.5 -727.645 1227.59 -899.829 1215.7 -910.313C1184.24 -936.927 1052.38 -799.019 1016.09 -819.181C997.947 -829.262 1003.39 -923.217 984.237 -931.483C969.115 -938.137 929.194 -859.101 913.266 -864.545C897.338 -869.989 877.781 -875.433 859.635 -879.868C848.748 -882.489 855.401 -1023.83 844.312 -1025.84C824.15 -1029.67 783.826 -893.175 762.454 -894.99C747.131 -895.998 731.606 -896.603 715.88 -896.603C695.718 -896.603 662.45 -1021.61 643.498 -1019.79C607.004 -1016.37 586.439 -884.102 551.962 -874.626C531.471 -868.937 511.283 -862.207 491.476 -854.464C470.104 -846.198 398.126 -950.839 377.963 -940.153C354.172 -927.854 382.399 -799.019 360.826 -784.703C349.938 -777.243 339.252 -769.38 328.97 -761.114C318.687 -752.847 209.207 -819.382 198.319 -809.503C178.157 -790.752 255.983 -693.571 238.644 -672.199C225.74 -656.674 213.441 -640.343 202.15 -623.609C195.698 -614.132 13.0301 -733.895 7.18313 -724.419C-2.09142 -709.096 166.262 -564.332 158.399 -548.404C150.535 -532.476 143.075 -515.137 136.422 -497.999C130.978 -483.885 23.716 -495.579 19.2804 -480.861C14.8447 -466.143 112.631 -422.391 109.002 -406.06C105.372 -389.729 -18.0194 -398.398 -20.2373 -380.454C-21.8502 -368.559 97.5092 -329.041 96.7027 -316.742C95.8962 -304.443 95.2913 -289.926 95.2913 -276.418C95.2913 -268.151 -17.6162 -242.949 -17.213 -234.682C-17.213 -218.754 97.9124 -219.964 99.727 -204.439C101.138 -192.14 102.953 -179.842 104.969 -167.744C108.195 -150.203 -52.295 -69.1519 -47.6577 -52.0141C-44.0285 -38.7072 124.123 -89.1122 128.76 -76.0069C131.381 -68.1437 134.204 -60.4822 137.027 -52.8206C142.672 -38.5056 148.721 -24.3921 155.173 -10.6819C161.625 3.02832 47.3056 76.4182 55.7737 90.1284C61.8223 100.613 191.263 54.24 198.118 64.5226C207.191 78.0311 216.667 91.3381 226.748 104.847C236.829 118.355 165.052 223.601 177.553 236.707C190.053 249.812 284.21 169.164 295.904 179.85C312.256 194.954 329.419 209.156 347.317 222.392C352.559 226.222 306.993 376.228 311.429 379.857C344.494 402.842 432.401 276.426 469.298 292.556C484.419 299.209 500.146 305.258 515.872 310.701C531.598 316.145 503.976 455.263 518.291 458.893C540.066 464.538 602.166 333.686 624.949 337.92C655.183 342.425 685.714 344.649 716.283 344.574C741.284 344.574 784.027 526.032 808.222 523.814C819.916 522.403 813.061 337.114 824.352 335.097C844.514 331.67 862.458 327.436 881.007 322.395C890.281 319.774 963.47 435.505 972.543 432.48C990.487 426.835 943.509 301.629 960.647 294.37C981.711 285.333 1002.24 275.101 1022.14 263.724C1055.41 244.973 1163.28 317.153 1191.7 292.556C1204.81 281.466 1141.7 175.817 1154 163.518C1170.28 147.27 1185.69 130.176 1200.17 112.307C1212.47 96.9836 1424.37 156.865 1435.26 140.332C1448.97 120.17 1261.06 22.1824 1272.15 -0.80249C1290.11 -36.9288 1304.42 -74.7507 1314.89 -113.71C1319.33 -129.235 1444.33 -105.645 1447.56 -121.977C1452 -145.768 1333.65 -209.681 1335.26 -234.481C1335.26 -248.191 1336.67 -262.304 1336.67 -276.216C1336.67 -305.653 1477.8 -358.477 1474.78 -386.704C1471.76 -408.278 1323.36 -405.657 1318.32 -427.028C1313.89 -442.553 1309.05 -458.885 1303.6 -475.014Z" fill="#FFDE3E"/>
<path d="M462.44 70.9734C375.541 22.5845 307.595 -57.0556 221.705 -106.654C244.953 -38.5211 282.028 24.0739 330.604 77.2056C379.181 130.337 438.21 172.86 503.992 202.107C569.774 231.354 640.889 246.694 712.878 247.166C784.867 247.638 856.177 233.231 922.336 204.85C765.072 213.721 600.348 161.098 462.44 70.9734Z" fill="#FFBE06"/>
<path d="M1220.33 -138.51C945.726 34.6819 558.816 2.62415 284.411 -239.321C258.603 -259.483 227.151 -258.273 193.682 -254.039C195.583 -203.622 204.89 -153.758 221.304 -106.049C307.194 -56.4507 375.14 23.1895 462.039 71.5785C599.947 160.695 764.47 214.326 921.935 205.454C994.337 174.251 1058.77 127.118 1110.43 67.5646C1162.1 8.01132 1199.66 -62.4283 1220.33 -138.51Z" fill="#FFC533"/>
<path d="M284.814 -239.925C559.22 2.01971 946.13 34.6823 1220.74 -139.115C1247.96 -239.333 1244.73 -345.387 1211.46 -443.763C1022.75 -321.581 830.4 -228.029 595.31 -328.638C471.918 -373.599 390.867 -504.25 268.08 -544.574C219.192 -463.457 193.396 -370.524 193.48 -275.813C193.48 -268.757 193.48 -261.902 193.48 -255.651C227.554 -258.877 259.007 -259.281 284.814 -239.925Z" fill="#FFDE3E"/>
<path opacity="0.5" d="M393.688 -204.239C386.43 -204.239 306.79 -163.915 306.79 -163.915C306.79 -163.915 261.223 -145.567 277.152 -102.219C293.08 -58.8706 295.499 -17.9416 329.775 14.1161C364.05 46.1738 347.92 130.451 423.326 103.031C498.733 75.6104 584.623 57.4645 546.517 14.1161C521.154 -19.2389 487.22 -45.0904 448.327 -60.6852C393.688 -87.904 408.003 -115.324 425.544 -135.89C443.085 -156.455 507.806 -55.2414 539.662 -78.8311C571.518 -102.421 620.31 -138.107 596.72 -151.818C573.131 -165.528 569.3 -163.31 519.096 -171.98C468.893 -180.649 462.038 -208.675 393.688 -204.239Z" fill="#FF7415"/>
<path opacity="0.5" d="M541.882 -44.3526C550.987 -53.6891 563.161 -59.418 576.158 -60.4823C588.442 -63.8583 601.304 -64.5795 613.889 -62.598C626.474 -60.6164 638.492 -55.9774 649.144 -48.9899C683.42 -28.8278 678.984 -1.00423 722.333 1.21359C765.681 3.43142 790.682 -12.4966 823.143 1.21359C855.604 14.9238 903.791 30.8518 880.202 87.9104C856.612 144.969 825.361 204.246 782.012 208.883C738.664 213.52 638.257 202.028 603.982 206.665C569.706 211.302 512.647 174.607 510.43 151.824C508.212 129.041 535.43 108.476 585.836 99.4028C636.241 90.3299 653.782 56.0544 615.474 28.634C577.166 1.21361 544.705 -21.5695 540.068 -26.2068C535.43 -30.8441 546.52 -37.4975 541.882 -44.3526Z" fill="#FF7415"/>
<path opacity="0.5" d="M925.362 -94.5565C906.88 -84.0198 891.241 -69.1419 879.796 -51.2081C863.666 -23.9893 856.811 -12.4969 884.232 14.9235C911.652 42.3439 875.159 67.3448 916.289 74.1999C933.663 76.6962 951.365 75.5473 968.27 70.8264C985.175 66.1055 1000.91 57.916 1014.48 46.7796C1032.62 30.8515 1108.03 -28.4249 1069.12 -33.8687C1030.2 -39.3124 1014.48 -6.4483 987.058 -29.2314C967.228 -48.221 950.975 -70.6213 939.072 -95.363L925.362 -94.5565Z" fill="#FF7415"/>
<path opacity="0.5" d="M897.742 108.475L870.322 156.46C870.322 156.46 811.045 213.519 854.394 206.664C893.087 202.954 930.101 189.039 961.656 166.34C995.931 141.137 1066.7 107.063 1071.34 81.8608C1075.97 56.6583 1046.13 54.4404 1007.42 72.7879C968.712 91.1354 950.365 120.774 934.235 113.112C918.106 105.45 925.364 108.475 897.742 108.475Z" fill="#FF7415"/>
<path opacity="0.5" d="M1105.61 -33.0617C1095.38 -22.7564 1087.59 -10.2851 1082.83 3.43167C1076.26 17.7827 1074.98 33.9928 1079.2 49.1996C1082.14 50.9508 1085.39 52.1053 1088.78 52.5971C1092.16 53.0888 1095.61 52.9081 1098.92 52.0654C1102.24 51.2226 1105.36 49.7343 1108.09 47.6857C1110.83 45.6371 1113.14 43.0684 1114.89 40.1266C1128.6 17.3435 1160.45 -12.2947 1160.45 -26.0049C1160.45 -39.7151 1128.6 -46.167 1128.6 -46.167L1105.61 -33.0617Z" fill="#FF7415"/>
<path d="M22.7083 -23.3842C7.99004 -11.6902 24.5229 8.6735 42.8704 12.3027C51.3226 13.4138 59.9166 12.1101 67.6589 8.54221C75.4012 4.97431 81.9757 -0.712051 86.6221 -7.85939C95.695 -22.5777 95.2917 -45.9657 73.5167 -43.3446C55.598 -39.531 38.4313 -32.787 22.7083 -23.3842Z" fill="#FF8500"/>
<path opacity="0.5" d="M34.1971 -13.7063C49.9692 -23.2001 67.2063 -30.0131 85.2071 -33.8683C87.4064 -34.2738 89.6613 -34.2738 91.8606 -33.8683C91.4178 -35.7621 90.5938 -37.5458 89.4389 -39.1105C88.284 -40.6752 86.8223 -41.9882 85.1431 -42.9693C83.4639 -43.9504 81.6024 -44.579 79.6721 -44.8169C77.7419 -45.0547 75.7835 -44.8967 73.9164 -44.3526C55.9263 -40.4621 38.6948 -33.6513 22.9064 -24.1906C11.414 -15.1176 19.0756 -0.802624 31.5761 6.85896C30.3244 5.36728 29.395 3.63275 28.8463 1.76445C28.2976 -0.103851 28.1414 -2.06544 28.3876 -3.99704C28.6338 -5.92863 29.277 -7.7884 30.2768 -9.45934C31.2766 -11.1303 32.6114 -12.5762 34.1971 -13.7063Z" fill="#FFFA94"/>
<path d="M184 314.128C174.323 340.137 211.017 353.243 237.228 343.565C248.758 338.584 258.654 330.459 265.785 320.119C272.916 309.78 276.993 297.643 277.552 285.095C277.552 259.288 259.003 230.053 233.397 250.013C213.642 268.636 196.969 290.277 184 314.128Z" fill="#FF8500"/>
<path opacity="0.5" d="M205.982 317.557C218.883 293.661 235.564 272.01 255.379 253.441C258.015 251.359 260.934 249.662 264.048 248.401C262.039 246.347 259.64 244.714 256.991 243.6C254.342 242.485 251.498 241.911 248.624 241.911C245.751 241.911 242.906 242.485 240.257 243.6C237.609 244.714 235.209 246.347 233.2 248.401C213.332 266.921 196.644 288.582 183.803 312.516C176.142 332.678 196.707 344.977 218.482 344.977C215.762 344.139 213.249 342.733 211.111 340.854C208.973 338.975 207.257 336.664 206.076 334.073C204.895 331.483 204.276 328.672 204.26 325.825C204.244 322.978 204.83 320.161 205.982 317.557Z" fill="#FFFA94"/>
<path d="M631.399 443.368C635.432 457.683 655.392 452.037 663.86 439.537C667.42 433.857 669.308 427.289 669.308 420.585C669.308 413.881 667.42 407.313 663.86 401.632C655.795 390.342 638.456 383.487 633.819 400.221C630.695 414.379 629.878 428.949 631.399 443.368Z" fill="#FF8500"/>
<path opacity="0.5" d="M642.083 437.923C640.265 423.556 640.741 408.992 643.494 394.776C643.992 393.062 644.739 391.432 645.712 389.937C644.201 389.679 642.653 389.726 641.16 390.075C639.667 390.425 638.259 391.069 637.019 391.971C635.779 392.873 634.732 394.014 633.939 395.326C633.147 396.639 632.625 398.097 632.405 399.615C629.605 414.03 629.128 428.8 630.994 443.366C634.018 454.455 646.72 453.447 656.196 446.592C654.698 447.043 653.122 447.172 651.571 446.971C650.019 446.769 648.528 446.241 647.195 445.423C645.862 444.604 644.718 443.512 643.837 442.22C642.955 440.927 642.358 439.463 642.083 437.923Z" fill="#FFFA94"/>
<path d="M697.733 525.629C701.564 539.944 721.524 534.097 729.992 521.798C733.547 516.079 735.432 509.479 735.432 502.745C735.432 496.01 733.547 489.411 729.992 483.691C721.927 472.602 704.79 465.546 699.951 482.28C696.818 496.507 696.069 511.156 697.733 525.629Z" fill="#FF8500"/>
<path opacity="0.5" d="M708.215 520.185C706.429 505.81 706.974 491.24 709.828 477.038C710.196 475.218 710.953 473.499 712.046 471.998C710.52 471.741 708.957 471.795 707.452 472.157C705.947 472.519 704.531 473.181 703.288 474.103C702.046 475.026 701.002 476.19 700.22 477.526C699.439 478.862 698.935 480.342 698.739 481.877C695.884 496.079 695.34 510.649 697.126 525.024C700.15 536.315 713.054 535.105 722.53 528.452C719.536 529.252 716.346 528.831 713.662 527.281C710.977 525.731 709.018 523.179 708.215 520.185Z" fill="#FFFA94"/>
<path d="M564.258 524.015C564.258 538.935 584.42 538.935 596.315 529.459C601.251 524.894 604.798 519.028 606.545 512.536C608.293 506.044 608.172 499.19 606.195 492.764C601.557 479.658 586.033 468.368 577.766 482.884C571.072 495.775 566.51 509.665 564.258 524.015Z" fill="#FF8500"/>
<path opacity="0.5" d="M575.15 521.999C577.445 507.943 581.935 494.336 588.457 481.675C589.511 480.199 590.729 478.846 592.086 477.642C590.7 476.967 589.193 476.578 587.654 476.498C586.115 476.417 584.575 476.647 583.127 477.174C581.678 477.701 580.351 478.513 579.223 479.564C578.095 480.614 577.19 481.88 576.561 483.288C570.047 495.97 565.493 509.565 563.053 523.612C563.053 535.104 575.553 537.725 586.441 533.693C584.923 533.694 583.421 533.389 582.025 532.796C580.628 532.204 579.365 531.336 578.311 530.245C577.257 529.153 576.434 527.86 575.891 526.444C575.348 525.027 575.096 523.515 575.15 521.999Z" fill="#FFFA94"/>
<path d="M-17.6153 152.226C-26.8899 161.098 -14.3894 174.203 -1.48571 175.413C4.35488 175.734 10.1665 174.389 15.2714 171.533C20.3763 168.677 24.564 164.428 27.346 159.283C32.7898 148.597 30.9752 132.669 16.2569 135.693C4.14905 139.343 -7.28922 144.926 -17.6153 152.226Z" fill="#FF8500"/>
<path opacity="0.5" d="M-9.55081 158.276C0.844378 150.653 12.4247 144.795 24.7247 140.937C26.2569 140.648 27.8297 140.648 29.362 140.937C28.452 138.424 26.5817 136.376 24.1621 135.242C21.7425 134.107 18.9715 133.98 16.4582 134.888C4.34741 138.435 -7.09651 143.953 -17.414 151.22C-24.6724 158.075 -18.6237 167.551 -9.55081 171.382C-11.1944 169.595 -12.1067 167.256 -12.1067 164.829C-12.1067 162.401 -11.1944 160.063 -9.55081 158.276Z" fill="#FFFA94"/>
<path d="M1465.91 102.024C1478.81 102.024 1479.01 84.2818 1470.75 74.2007C1466.84 69.8881 1461.8 66.7669 1456.2 65.1972C1450.6 63.6275 1444.67 63.6734 1439.09 65.3295C1427.8 69.1603 1417.72 81.6608 1430.22 89.9272C1441.4 95.83 1453.44 99.9136 1465.91 102.024Z" fill="#FF8500"/>
<path opacity="0.5" d="M1464.09 91.9418C1451.72 90.0548 1439.74 86.1737 1428.61 80.4494C1427.19 79.719 1425.95 78.6866 1424.98 77.425C1424.4 78.6282 1424.07 79.9343 1424 81.2674C1423.93 82.6005 1424.12 83.9341 1424.57 85.1908C1425.03 86.4475 1425.72 87.6022 1426.62 88.5881C1427.52 89.5739 1428.61 90.3712 1429.82 90.9337C1440.9 96.938 1452.88 101.092 1465.3 103.233C1475.38 103.233 1477.8 92.5466 1474.38 83.0705C1474.17 85.603 1472.98 87.9528 1471.05 89.6125C1469.13 91.2723 1466.63 92.1089 1464.09 91.9418Z" fill="#FFFA94"/>
<path d="M1458.65 38.7153C1466.51 38.7153 1466.71 27.8278 1461.67 21.7792C1459.23 18.9748 1456.01 16.9598 1452.42 15.9905C1448.83 15.0212 1445.03 15.1412 1441.51 16.3354C1434.65 18.5532 1428.61 26.2148 1436.27 31.2554C1443.25 35.0054 1450.82 37.5288 1458.65 38.7153Z" fill="#FF8500"/>
<path opacity="0.5" d="M1457.64 32.4645C1450.08 31.19 1442.79 28.669 1436.07 25.0045C1435.25 24.502 1434.5 23.8916 1433.85 23.1899C1433.15 24.6635 1433.05 26.3534 1433.58 27.8981C1434.1 29.4429 1435.21 30.72 1436.67 31.4564C1443.47 35.1113 1450.83 37.6311 1458.45 38.9163C1464.49 38.9163 1465.91 32.4645 1463.89 26.6175C1463.89 27.4205 1463.73 28.2153 1463.41 28.9523C1463.09 29.6893 1462.62 30.3527 1462.04 30.9013C1461.45 31.4499 1460.76 31.8718 1460 32.1407C1459.24 32.4097 1458.44 32.5199 1457.64 32.4645Z" fill="#FFFA94"/>
<path d="M1338.88 318.363C1344.53 323.806 1352.19 315.741 1352.59 307.878C1352.61 304.305 1351.62 300.8 1349.72 297.767C1347.83 294.735 1345.12 292.299 1341.91 290.741C1335.26 287.918 1325.58 289.329 1327.8 298.201C1330.43 305.453 1334.17 312.254 1338.88 318.363Z" fill="#FF8500"/>
<path opacity="0.5" d="M1342.31 312.919C1337.56 306.838 1333.81 300.03 1331.22 292.757C1331.14 291.818 1331.14 290.873 1331.22 289.934C1330.48 290.242 1329.8 290.697 1329.22 291.272C1328.65 291.847 1328.21 292.531 1327.9 293.284C1327.6 294.036 1327.46 294.841 1327.47 295.651C1327.49 296.461 1327.67 297.259 1328 297.999C1330.49 305.277 1334.16 312.09 1338.89 318.161C1343.32 322.395 1348.97 318.161 1351.39 312.717C1350.85 313.404 1350.17 313.963 1349.4 314.354C1348.62 314.745 1347.77 314.958 1346.9 314.977C1346.03 314.996 1345.17 314.822 1344.37 314.466C1343.58 314.109 1342.88 313.581 1342.31 312.919Z" fill="#FFFA94"/>
<path d="M1045.73 343.565C1051.38 349.21 1058.84 341.146 1059.24 333.081C1059.22 329.542 1058.2 326.079 1056.31 323.086C1054.43 320.093 1051.74 317.688 1048.55 316.145C1041.9 313.322 1032.22 314.733 1034.64 323.604C1037.25 330.807 1040.99 337.546 1045.73 343.565Z" fill="#FF8500"/>
<path opacity="0.5" d="M1048.96 338.323C1044.23 332.253 1040.55 325.439 1038.07 318.161C1037.88 317.229 1037.88 316.27 1038.07 315.338C1037.3 315.626 1036.6 316.067 1036.01 316.634C1035.42 317.201 1034.95 317.882 1034.63 318.636C1034.3 319.39 1034.14 320.202 1034.14 321.021C1034.15 321.841 1034.32 322.651 1034.64 323.403C1037.23 330.677 1040.97 337.485 1045.73 343.565C1050.17 347.799 1055.61 343.565 1058.03 338.121C1057.5 338.808 1056.82 339.367 1056.04 339.758C1055.26 340.149 1054.41 340.362 1053.54 340.381C1052.67 340.401 1051.81 340.226 1051.02 339.87C1050.22 339.514 1049.52 338.985 1048.96 338.323Z" fill="#FFFA94"/>
<path d="M1062.87 404.052C1049.36 389.737 1029.4 408.89 1027.39 428.649C1027 437.56 1029.13 446.399 1033.51 454.167C1037.89 461.934 1044.36 468.321 1052.18 472.602C1068.52 480.667 1092.51 478.046 1088.07 455.465C1082.51 437.076 1074 419.712 1062.87 404.052Z" fill="#FF8500"/>
<path opacity="0.5" d="M1053.8 416.954C1065 432.601 1073.58 449.966 1079.2 468.367C1079.69 470.694 1079.69 473.097 1079.2 475.424C1081.22 474.826 1083.09 473.807 1084.68 472.436C1086.28 471.065 1087.56 469.371 1088.46 467.467C1089.35 465.563 1089.84 463.492 1089.87 461.388C1089.91 459.285 1089.5 457.197 1088.68 455.262C1083.13 436.804 1074.62 419.371 1063.48 403.647C1052.99 392.558 1038.68 401.631 1031.82 415.543C1033.31 414.107 1035.09 412.997 1037.03 412.285C1038.98 411.573 1041.05 411.274 1043.12 411.406C1045.19 411.539 1047.2 412.101 1049.04 413.056C1050.88 414.011 1052.5 415.339 1053.8 416.954Z" fill="#FFFA94"/>
<path d="M1275.18 189.931C1257.63 180.858 1245.13 205.456 1249.77 224.811C1252.26 233.359 1257.12 241.024 1263.8 246.914C1270.47 252.804 1278.68 256.675 1287.47 258.078C1305.62 260.498 1327.8 249.812 1315.9 230.255C1304.56 214.727 1290.82 201.114 1275.18 189.931Z" fill="#FF8500"/>
<path opacity="0.5" d="M1270.74 205.051C1286.26 216.239 1299.87 229.855 1311.06 245.375C1312.18 247.443 1313.12 249.601 1313.88 251.827C1315.47 250.574 1316.79 249.015 1317.76 247.242C1318.74 245.47 1319.34 243.521 1319.55 241.509C1319.76 239.498 1319.56 237.465 1318.97 235.532C1318.37 233.599 1317.4 231.804 1316.1 230.254C1304.95 214.705 1291.33 201.084 1275.78 189.93C1262.27 182.671 1251.78 196.18 1249.97 211.503C1250.86 209.671 1252.12 208.041 1253.66 206.714C1255.21 205.387 1257.01 204.39 1258.96 203.786C1260.9 203.181 1262.95 202.982 1264.98 203.199C1267 203.417 1268.96 204.047 1270.74 205.051Z" fill="#FFFA94"/>
<path opacity="0.2" d="M871.933 -773.01C894.693 -695.087 898.994 -612.933 884.496 -533.059C869.997 -453.185 837.097 -377.784 788.402 -312.831C739.706 -247.878 676.554 -195.158 603.949 -158.846C531.343 -122.534 451.279 -103.63 370.099 -103.63C320.526 -103.29 271.162 -110.08 223.521 -123.792C249.112 -36.7468 296.915 42.1401 362.231 105.113C427.546 168.086 508.126 212.977 596.047 235.373C683.968 257.768 776.205 256.897 863.687 232.846C951.17 208.794 1030.89 162.39 1095 98.1951C1159.12 34.0002 1205.42 -45.775 1229.37 -133.288C1253.31 -220.8 1254.07 -313.038 1231.56 -400.931C1209.06 -488.824 1164.06 -569.348 1101.01 -634.585C1037.96 -699.823 959.01 -747.528 871.933 -773.01Z" fill="url(#paint0_linear_1_1723)"/>
<defs>
<linearGradient id="paint0_linear_1_1723" x1="694.91" y1="-294.766" x2="1219.33" y2="113.112" gradientUnits="userSpaceOnUse">
<stop stop-color="#FF3B00"/>
<stop offset="1" stop-color="#FF8D00"/>
</linearGradient>
</defs>
</svg>
